<?xml version="1.0" encoding="UTF-8" standalone="no"?>
<!-- Created with Inkscape (http://www.inkscape.org/) -->

<svg
   xmlns:dc="http://purl.org/dc/elements/1.1/"
   xmlns:cc="http://creativecommons.org/ns#"
   xmlns:rdf="http://www.w3.org/1999/02/22-rdf-syntax-ns#"
   xmlns:svg="http://www.w3.org/2000/svg"
   xmlns="http://www.w3.org/2000/svg"
   xmlns:sodipodi="http://sodipodi.sourceforge.net/DTD/sodipodi-0.dtd"
   xmlns:inkscape="http://www.inkscape.org/namespaces/inkscape"
   id="svg2"
   version="1.1"
   inkscape:version="0.91 r13725"
   width="428"
   height="435"
   viewBox="0 0 428 435"
   sodipodi:docname="data.svg">
  <metadata
     id="metadata8">
    <rdf:RDF>
      <cc:Work
         rdf:about="">
        <dc:format>image/svg+xml</dc:format>
        <dc:type
           rdf:resource="http://purl.org/dc/dcmitype/StillImage" />
        <dc:title />
      </cc:Work>
    </rdf:RDF>
  </metadata>
  <defs
     id="defs6" />
  <sodipodi:namedview
     pagecolor="#ffffff"
     bordercolor="#666666"
     borderopacity="1"
     objecttolerance="10"
     gridtolerance="10"
     guidetolerance="10"
     inkscape:pageopacity="0"
     inkscape:pageshadow="2"
     inkscape:window-width="1537"
     inkscape:window-height="993"
     id="namedview4"
     showgrid="false"
     showguides="true"
     inkscape:guide-bbox="true"
     inkscape:zoom="0.96631113"
     inkscape:cx="26.557003"
     inkscape:cy="217.5"
     inkscape:window-x="217"
     inkscape:window-y="36"
     inkscape:window-maximized="0"
     inkscape:current-layer="layer2" />
  <g
     inkscape:groupmode="layer"
     id="layer2"
     inkscape:label="data icon"
     style="display:inline">
    <path
       style="fill:#023452;fill-opacity:1;fill-rule:evenodd;stroke:none;stroke-width:1px;stroke-linecap:butt;stroke-linejoin:miter;stroke-opacity:1"
       d="m 56.812655,119.42978 c 0,0 -1.19683,-22.188266 0.805168,-33.011917 9.839873,-53.198538 265.705647,-66.052579 301.133067,0 0,0 -0.84585,23.105347 0,33.011907 -24.45287,65.04023 -285.834863,61.19282 -301.938235,10e-6 z"
       id="path4141"
       inkscape:connector-curvature="0"
       sodipodi:nodetypes="csccc" />
    <path
       style="fill:#023452;fill-opacity:1;fill-rule:evenodd;stroke:none;stroke-width:1px;stroke-linecap:butt;stroke-linejoin:miter;stroke-opacity:1"
       d="m 56.812655,158.88304 c 0,0 0.20186,28.53196 0.997767,39.83845 6.28057,13.26773 40.000368,41.6166 147.153258,43.09392 107.81927,1.4865 150.29277,-30.77966 152.25578,-43.7854 1.54319,-10.22428 0.78265,-12.00369 1.64511,-39.2081 C 339.68636,172.5955 275.1208,194.04208 207.50146,191.83382 119.75163,188.96815 86.603893,176.59675 56.812655,158.88304 Z"
       id="path4145"
       inkscape:connector-curvature="0"
       sodipodi:nodetypes="ccsscsc" />
    <path
       sodipodi:nodetypes="ccsscsc"
       inkscape:connector-curvature="0"
       id="path4147"
       d="m 56.812655,234.25158 c 0,0 0.20186,28.53196 0.997767,39.83844 6.28057,13.26773 40.000368,41.6166 147.153258,43.09392 107.81927,1.4865 150.29277,-30.77966 152.25578,-43.78539 1.54319,-10.22429 0.78265,-12.0037 1.64511,-39.20811 -19.17821,13.77359 -83.74377,35.22017 -151.36311,33.01191 C 119.75163,264.33669 86.603893,251.96528 56.812655,234.25158 Z"
       style="fill:#023452;fill-opacity:1;fill-rule:evenodd;stroke:none;stroke-width:1px;stroke-linecap:butt;stroke-linejoin:miter;stroke-opacity:1" />
    <path
       style="fill:#023452;fill-opacity:1;fill-rule:evenodd;stroke:none;stroke-width:1px;stroke-linecap:butt;stroke-linejoin:miter;stroke-opacity:1"
       d="m 56.812655,309.62011 c 0,0 0.20186,28.53196 0.997767,39.83845 6.28057,13.26772 40.000368,41.6166 147.153258,43.09391 107.81927,1.4865 150.29277,-30.77966 152.25578,-43.78539 1.54319,-10.22429 0.78265,-12.00369 1.64511,-39.20811 -19.17821,13.77359 -83.74377,35.22018 -151.36311,33.01191 C 119.75163,339.70522 86.603893,327.33381 56.812655,309.62011 Z"
       id="path4149"
       inkscape:connector-curvature="0"
       sodipodi:nodetypes="ccsscsc" />
  </g>
</svg>
