<?xml version="1.0" encoding="UTF-8" standalone="no"?>
<!-- Created with Inkscape (http://www.inkscape.org/) -->

<svg
   xmlns:dc="http://purl.org/dc/elements/1.1/"
   xmlns:cc="http://creativecommons.org/ns#"
   xmlns:rdf="http://www.w3.org/1999/02/22-rdf-syntax-ns#"
   xmlns:svg="http://www.w3.org/2000/svg"
   xmlns="http://www.w3.org/2000/svg"
   xmlns:sodipodi="http://sodipodi.sourceforge.net/DTD/sodipodi-0.dtd"
   xmlns:inkscape="http://www.inkscape.org/namespaces/inkscape"
   id="svg4871"
   version="1.1"
   inkscape:version="0.91 r13725"
   width="96"
   height="115"
   viewBox="0 0 96 115"
   sodipodi:docname="tools.svg">
  <metadata
     id="metadata4877">
    <rdf:RDF>
      <cc:Work
         rdf:about="">
        <dc:format>image/svg+xml</dc:format>
        <dc:type
           rdf:resource="http://purl.org/dc/dcmitype/StillImage" />
        <dc:title />
      </cc:Work>
    </rdf:RDF>
  </metadata>
  <defs
     id="defs4875" />
  <sodipodi:namedview
     pagecolor="#ffffff"
     bordercolor="#666666"
     borderopacity="1"
     objecttolerance="10"
     gridtolerance="10"
     guidetolerance="10"
     inkscape:pageopacity="0"
     inkscape:pageshadow="2"
     inkscape:window-width="1678"
     inkscape:window-height="1069"
     id="namedview4873"
     showgrid="false"
     showguides="true"
     inkscape:guide-bbox="true"
     inkscape:zoom="2.9022122"
     inkscape:cx="-77.686462"
     inkscape:cy="46.11799"
     inkscape:window-x="66"
     inkscape:window-y="93"
     inkscape:window-maximized="0"
     inkscape:current-layer="layer7">
    <sodipodi:guide
       position="-31.699957,194.33452"
       orientation="0,1"
       id="guide5439" />
  </sodipodi:namedview>
  <g
     inkscape:groupmode="layer"
     id="layer7"
     inkscape:label="toolbox and tools"
     style="display:inline">
    <path
       style="fill:#023452;fill-opacity:1;fill-rule:evenodd;stroke:none;stroke-width:1px;stroke-linecap:butt;stroke-linejoin:miter;stroke-opacity:1"
       d="m 30.103771,49.947034 -3.289195,-3.898305 -7.065678,0.121822 -5.238347,-9.745763 2.680085,-2.680085 5.969279,6.212924 3.532839,-3.411017 -5.725635,-6.334746 2.192796,-2.192796 10.233051,5.238347 0.08002,7.196158 9.543922,9.493461 -12.926647,0.0074 z"
       id="path5424"
       inkscape:connector-curvature="0"
       sodipodi:nodetypes="cccccccccccccc" />
    <path
       style="fill:#023452;fill-opacity:1;fill-rule:evenodd;stroke:none;stroke-width:1px;stroke-linecap:butt;stroke-linejoin:miter;stroke-opacity:1"
       d="m 51.968365,49.826803 9.708724,-9.769635 3.586578,4.113875 -5.513036,5.624408 z"
       id="path5426"
       inkscape:connector-curvature="0"
       sodipodi:nodetypes="ccccc" />
    <path
       style="fill:#023452;fill-opacity:1;fill-rule:evenodd;stroke:none;stroke-width:1px;stroke-linecap:butt;stroke-linejoin:miter;stroke-opacity:1"
       d="m 54.102712,28.14089 c 0,0 7.126589,-2.497352 12.913135,0.670021 2.252334,1.232856 7.492056,7.613877 7.492056,7.613877 0,0 -1.157309,4.507415 3.715572,3.471928 1.894227,1.73705 3.411017,3.411017 3.411017,3.411017 l -6.334746,6.761123 -3.59375,-3.106462 c 0.289145,-4.323184 -2.077002,-3.7296 -4.263771,-3.959216 -1.096399,-1.157309 -4.872882,-5.055615 -4.872882,-5.055615 0,0 -0.243644,-9.380296 -7.918432,-7.918432 -7.674788,1.461865 -1.21822,-1.644597 -0.548199,-1.888241 z"
       id="path5430"
       inkscape:connector-curvature="0"
       sodipodi:nodetypes="cscccccccsc" />
    <path
       style="fill:#023452;fill-opacity:1;fill-rule:evenodd;stroke:none;stroke-width:1px;stroke-linecap:butt;stroke-linejoin:miter;stroke-opacity:1"
       d="m 37.212992,34.974838 21.276874,0 c 0,0 -0.430706,2.9288 1.205976,4.479341 l -22.138285,0 c 0,0 -2.498094,-4.220918 -0.344565,-4.479341 z"
       id="path5432"
       inkscape:connector-curvature="0"
       sodipodi:nodetypes="ccccc" />
    <path
       style="fill:#023452;fill-opacity:1;fill-rule:evenodd;stroke:none;stroke-width:1px;stroke-linecap:butt;stroke-linejoin:miter;stroke-opacity:1"
       d="m 19.295626,49.446557 -2.411954,4.307059 61.504807,0 -0.861411,-1.981247 3.445647,-3.359506 c 0.906566,1.610419 2.476251,4.548211 3.014942,5.599177 l 0,23.602685 c 0,0 0.430705,2.067389 -2.15353,2.15353 -2.584236,0.08614 -68.740667,0 -68.740667,0 0,0 -1.550541,-0.08614 -1.292118,-2.756518 0.258424,-2.670377 0,-23.430403 0,-23.430403 l 3.704071,-6.891295 z"
       id="path5434"
       inkscape:connector-curvature="0"
       sodipodi:nodetypes="cccccccscsccc" />
  </g>
  <g
     inkscape:groupmode="layer"
     id="layer8"
     inkscape:label="white handle"
     style="display:inline">
    <path
       style="fill:#ffffff;fill-opacity:1;fill-rule:evenodd;stroke:none;stroke-width:1px;stroke-linecap:butt;stroke-linejoin:miter;stroke-opacity:1"
       d="m 33.767345,62.195453 c 0,0 0.138483,3.453925 0.182733,5.365983 0.244119,2.133548 2.665157,4.23607 4.990964,4.231369 0,0 12.093801,0.02847 17.653717,-0.03568 2.282905,-0.02634 5.272683,-0.618981 5.254612,-4.3932 -0.01688,-3.526016 0.09659,-5.10756 0.09659,-5.10756 l -5.265063,-0.03568 c 0,0 -0.04602,1.928428 -0.02523,2.731288 0.01637,0.632142 0.06524,1.4644 -1.266887,1.4644 l -15.419273,0 c 0,0 -0.947553,-0.258424 -1.033694,-1.205977 -0.08614,-0.947553 -0.09136,-2.989711 -0.09136,-2.989711 z"
       id="path5437"
       inkscape:connector-curvature="0"
       sodipodi:nodetypes="ccsssccsscscc" />
  </g>
</svg>
