<?xml version="1.0" encoding="UTF-8" standalone="no"?>
<!DOCTYPE svg PUBLIC "-//W3C//DTD SVG 1.1//EN"
 "http://www.w3.org/Graphics/SVG/1.1/DTD/svg11.dtd">
<!-- Generated by graphviz version 2.40.1 (20161225.0304)
 -->
<!-- Title: dependencies Pages: 1 -->
<svg width="504pt" height="284pt"
 viewBox="0.00 0.00 504.00 284.00" xmlns="http://www.w3.org/2000/svg" xmlns:xlink="http://www.w3.org/1999/xlink">
<g id="graph0" class="graph" transform="scale(1 1) rotate(0) translate(4 280)">
<title>dependencies</title>
<polygon fill="#ffffff" stroke="transparent" points="-4,4 -4,-280 500,-280 500,4 -4,4"/>
<text text-anchor="start" x="227.0091" y="-42.4" font-family="sans-serif" font-weight="bold" font-size="14.00" fill="#000000">Legend</text>
<polygon fill="#ffffb3" stroke="transparent" points="14,-10 14,-30 34,-30 34,-10 14,-10"/>
<text text-anchor="start" x="37.629" y="-15.4" font-family="sans-serif" font-size="14.00" fill="#000000"> &#160;Declarations</text>
<polygon fill="#8dd3c7" stroke="transparent" points="127,-10 127,-30 147,-30 147,-10 127,-10"/>
<text text-anchor="start" x="150.7251" y="-15.4" font-family="sans-serif" font-size="14.00" fill="#000000"> &#160;Module</text>
<polygon fill="#80b1d3" stroke="transparent" points="213,-10 213,-30 233,-30 233,-10 213,-10"/>
<text text-anchor="start" x="236.7812" y="-15.4" font-family="sans-serif" font-size="14.00" fill="#000000"> &#160;Bootstrap</text>
<polygon fill="#fdb462" stroke="transparent" points="310,-10 310,-30 330,-30 330,-10 310,-10"/>
<text text-anchor="start" x="333.6732" y="-15.4" font-family="sans-serif" font-size="14.00" fill="#000000"> &#160;Providers</text>
<polygon fill="#fb8072" stroke="transparent" points="406,-10 406,-30 426,-30 426,-10 406,-10"/>
<text text-anchor="start" x="429.7258" y="-15.4" font-family="sans-serif" font-size="14.00" fill="#000000"> &#160;Exports</text>
<g id="clust1" class="cluster">
<title>cluster_ContentTableModule</title>
<polygon fill="none" stroke="#000000" stroke-dasharray="1,5" points="88,-70 88,-268 408,-268 408,-70 88,-70"/>
</g>
<g id="clust2" class="cluster">
<title>cluster_ContentTableModule_declarations</title>
<polygon fill="none" stroke="#000000" points="226,-78 226,-130 400,-130 400,-78 226,-78"/>
</g>
<g id="clust4" class="cluster">
<title>cluster_ContentTableModule_imports</title>
<polygon fill="none" stroke="#000000" points="96,-78 96,-130 218,-130 218,-78 96,-78"/>
</g>
<g id="clust5" class="cluster">
<title>cluster_ContentTableModule_exports</title>
<polygon fill="none" stroke="#000000" points="159,-208 159,-260 337,-260 337,-208 159,-208"/>
</g>
<!-- ContentTableComponent -->
<g id="node1" class="node">
<title>ContentTableComponent</title>
<polygon fill="#ffffb3" stroke="#000000" points="391.5379,-122 234.4621,-122 234.4621,-86 391.5379,-86 391.5379,-122"/>
<text text-anchor="middle" x="313" y="-99.8" font-family="Times,serif" font-size="14.00" fill="#000000">ContentTableComponent</text>
</g>
<!-- ContentTableModule -->
<g id="node2" class="node">
<title>ContentTableModule</title>
<polygon fill="#8dd3c7" stroke="#000000" points="315.7548,-187 312.7548,-191 291.7548,-191 288.7548,-187 180.2452,-187 180.2452,-151 315.7548,-151 315.7548,-187"/>
<text text-anchor="middle" x="248" y="-164.8" font-family="Times,serif" font-size="14.00" fill="#000000">ContentTableModule</text>
</g>
<!-- ContentTableComponent&#45;&gt;ContentTableModule -->
<g id="edge1" class="edge">
<title>ContentTableComponent&#45;&gt;ContentTableModule</title>
<path fill="none" stroke="#000000" d="M275.0544,-122.1061C275.0544,-122.1061 275.0544,-140.991 275.0544,-140.991"/>
<polygon fill="#000000" stroke="#000000" points="271.5544,-140.9909 275.0544,-150.991 278.5544,-140.991 271.5544,-140.9909"/>
</g>
<!-- ContentTableComponent  -->
<g id="node4" class="node">
<title>ContentTableComponent </title>
<polygon fill="#fb8072" stroke="#000000" points="328.5372,-252 167.4628,-252 167.4628,-216 328.5372,-216 328.5372,-252"/>
<text text-anchor="middle" x="248" y="-229.8" font-family="Times,serif" font-size="14.00" fill="#000000">ContentTableComponent </text>
</g>
<!-- ContentTableModule&#45;&gt;ContentTableComponent  -->
<g id="edge3" class="edge">
<title>ContentTableModule&#45;&gt;ContentTableComponent </title>
<path fill="none" stroke="#000000" stroke-dasharray="5,2" d="M248,-187.1061C248,-187.1061 248,-205.991 248,-205.991"/>
<polygon fill="#000000" stroke="#000000" points="244.5001,-205.9909 248,-215.991 251.5001,-205.991 244.5001,-205.9909"/>
</g>
<!-- MaterialModule -->
<g id="node3" class="node">
<title>MaterialModule</title>
<polygon fill="#8dd3c7" stroke="#000000" points="210.4706,-122 207.4706,-126 186.4706,-126 183.4706,-122 103.5294,-122 103.5294,-86 210.4706,-86 210.4706,-122"/>
<text text-anchor="middle" x="157" y="-99.8" font-family="Times,serif" font-size="14.00" fill="#000000">MaterialModule</text>
</g>
<!-- MaterialModule&#45;&gt;ContentTableModule -->
<g id="edge2" class="edge">
<title>MaterialModule&#45;&gt;ContentTableModule</title>
<path fill="none" stroke="#000000" d="M195.304,-122.1061C195.304,-122.1061 195.304,-140.991 195.304,-140.991"/>
<polygon fill="#000000" stroke="#000000" points="191.8041,-140.9909 195.304,-150.991 198.8041,-140.991 191.8041,-140.9909"/>
</g>
</g>
</svg>
