<?xml version="1.0" encoding="UTF-8" standalone="no"?>
<!DOCTYPE svg PUBLIC "-//W3C//DTD SVG 1.1//EN"
 "http://www.w3.org/Graphics/SVG/1.1/DTD/svg11.dtd">
<!-- Generated by graphviz version 2.40.1 (20161225.0304)
 -->
<!-- Title: dependencies Pages: 1 -->
<svg width="1530pt" height="284pt"
 viewBox="0.00 0.00 1530.00 284.00" xmlns="http://www.w3.org/2000/svg" xmlns:xlink="http://www.w3.org/1999/xlink">
<g id="graph0" class="graph" transform="scale(1 1) rotate(0) translate(4 280)">
<title>dependencies</title>
<polygon fill="#ffffff" stroke="transparent" points="-4,4 -4,-280 1526,-280 1526,4 -4,4"/>
<text text-anchor="start" x="740.0091" y="-42.4" font-family="sans-serif" font-weight="bold" font-size="14.00" fill="#000000">Legend</text>
<polygon fill="#ffffb3" stroke="transparent" points="527,-10 527,-30 547,-30 547,-10 527,-10"/>
<text text-anchor="start" x="550.629" y="-15.4" font-family="sans-serif" font-size="14.00" fill="#000000"> &#160;Declarations</text>
<polygon fill="#8dd3c7" stroke="transparent" points="640,-10 640,-30 660,-30 660,-10 640,-10"/>
<text text-anchor="start" x="663.7251" y="-15.4" font-family="sans-serif" font-size="14.00" fill="#000000"> &#160;Module</text>
<polygon fill="#80b1d3" stroke="transparent" points="726,-10 726,-30 746,-30 746,-10 726,-10"/>
<text text-anchor="start" x="749.7812" y="-15.4" font-family="sans-serif" font-size="14.00" fill="#000000"> &#160;Bootstrap</text>
<polygon fill="#fdb462" stroke="transparent" points="823,-10 823,-30 843,-30 843,-10 823,-10"/>
<text text-anchor="start" x="846.6732" y="-15.4" font-family="sans-serif" font-size="14.00" fill="#000000"> &#160;Providers</text>
<polygon fill="#fb8072" stroke="transparent" points="919,-10 919,-30 939,-30 939,-10 919,-10"/>
<text text-anchor="start" x="942.7258" y="-15.4" font-family="sans-serif" font-size="14.00" fill="#000000"> &#160;Exports</text>
<g id="clust1" class="cluster">
<title>cluster_ScientificModule</title>
<polygon fill="none" stroke="#000000" stroke-dasharray="1,5" points="8,-70 8,-268 1514,-268 1514,-70 8,-70"/>
</g>
<g id="clust2" class="cluster">
<title>cluster_ScientificModule_declarations</title>
<polygon fill="none" stroke="#000000" points="501,-78 501,-130 1506,-130 1506,-78 501,-78"/>
</g>
<g id="clust8" class="cluster">
<title>cluster_ScientificModule_imports</title>
<polygon fill="none" stroke="#000000" points="194,-78 194,-130 493,-130 493,-78 194,-78"/>
</g>
<g id="clust10" class="cluster">
<title>cluster_ScientificModule_bootstrap</title>
<polygon fill="none" stroke="#000000" points="592,-208 592,-260 746,-260 746,-208 592,-208"/>
</g>
<g id="clust11" class="cluster">
<title>cluster_ScientificModule_providers</title>
<polygon fill="none" stroke="#000000" points="16,-78 16,-130 186,-130 186,-78 16,-78"/>
</g>
<!-- BenchmarkingChallengeListComponent -->
<g id="node1" class="node">
<title>BenchmarkingChallengeListComponent</title>
<polygon fill="#ffffb3" stroke="#000000" points="1498.2948,-122 1255.7052,-122 1255.7052,-86 1498.2948,-86 1498.2948,-122"/>
<text text-anchor="middle" x="1377" y="-99.8" font-family="Times,serif" font-size="14.00" fill="#000000">BenchmarkingChallengeListComponent</text>
</g>
<!-- ScientificModule -->
<g id="node6" class="node">
<title>ScientificModule</title>
<polygon fill="#8dd3c7" stroke="#000000" points="725.6994,-187 722.6994,-191 701.6994,-191 698.6994,-187 612.3006,-187 612.3006,-151 725.6994,-151 725.6994,-187"/>
<text text-anchor="middle" x="669" y="-164.8" font-family="Times,serif" font-size="14.00" fill="#000000">ScientificModule</text>
</g>
<!-- BenchmarkingChallengeListComponent&#45;&gt;ScientificModule -->
<g id="edge1" class="edge">
<title>BenchmarkingChallengeListComponent&#45;&gt;ScientificModule</title>
<path fill="none" stroke="#000000" d="M1377,-122.2921C1377,-144.2057 1377,-178 1377,-178 1377,-178 735.7418,-178 735.7418,-178"/>
<polygon fill="#000000" stroke="#000000" points="735.7418,-174.5001 725.7418,-178 735.7418,-181.5001 735.7418,-174.5001"/>
</g>
<!-- BenchmarkingDetailComponent -->
<g id="node2" class="node">
<title>BenchmarkingDetailComponent</title>
<polygon fill="#ffffb3" stroke="#000000" points="1237.9622,-122 1040.0378,-122 1040.0378,-86 1237.9622,-86 1237.9622,-122"/>
<text text-anchor="middle" x="1139" y="-99.8" font-family="Times,serif" font-size="14.00" fill="#000000">BenchmarkingDetailComponent</text>
</g>
<!-- BenchmarkingDetailComponent&#45;&gt;ScientificModule -->
<g id="edge2" class="edge">
<title>BenchmarkingDetailComponent&#45;&gt;ScientificModule</title>
<path fill="none" stroke="#000000" d="M1139,-122.1061C1139,-141.3391 1139,-169 1139,-169 1139,-169 735.693,-169 735.693,-169"/>
<polygon fill="#000000" stroke="#000000" points="735.693,-165.5001 725.693,-169 735.6929,-172.5001 735.693,-165.5001"/>
</g>
<!-- BenchmarkingListComponent -->
<g id="node3" class="node">
<title>BenchmarkingListComponent</title>
<polygon fill="#ffffb3" stroke="#000000" points="1021.5336,-122 836.4664,-122 836.4664,-86 1021.5336,-86 1021.5336,-122"/>
<text text-anchor="middle" x="929" y="-99.8" font-family="Times,serif" font-size="14.00" fill="#000000">BenchmarkingListComponent</text>
</g>
<!-- BenchmarkingListComponent&#45;&gt;ScientificModule -->
<g id="edge3" class="edge">
<title>BenchmarkingListComponent&#45;&gt;ScientificModule</title>
<path fill="none" stroke="#000000" d="M929,-122.027C929,-138.3976 929,-160 929,-160 929,-160 735.7368,-160 735.7368,-160"/>
<polygon fill="#000000" stroke="#000000" points="735.7369,-156.5001 725.7368,-160 735.7368,-163.5001 735.7369,-156.5001"/>
</g>
<!-- ScientificComponent -->
<g id="node4" class="node">
<title>ScientificComponent</title>
<polygon fill="#ffffb3" stroke="#000000" points="818.4818,-122 683.5182,-122 683.5182,-86 818.4818,-86 818.4818,-122"/>
<text text-anchor="middle" x="751" y="-99.8" font-family="Times,serif" font-size="14.00" fill="#000000">ScientificComponent</text>
</g>
<!-- ScientificComponent&#45;&gt;ScientificModule -->
<g id="edge4" class="edge">
<title>ScientificComponent&#45;&gt;ScientificModule</title>
<path fill="none" stroke="#000000" d="M704.5544,-122.1061C704.5544,-122.1061 704.5544,-140.991 704.5544,-140.991"/>
<polygon fill="#000000" stroke="#000000" points="701.0544,-140.9909 704.5544,-150.991 708.0544,-140.991 701.0544,-140.9909"/>
</g>
<!-- ScientificListComponent -->
<g id="node5" class="node">
<title>ScientificListComponent</title>
<polygon fill="#ffffb3" stroke="#000000" points="665.2604,-122 508.7396,-122 508.7396,-86 665.2604,-86 665.2604,-122"/>
<text text-anchor="middle" x="587" y="-99.8" font-family="Times,serif" font-size="14.00" fill="#000000">ScientificListComponent</text>
</g>
<!-- ScientificListComponent&#45;&gt;ScientificModule -->
<g id="edge5" class="edge">
<title>ScientificListComponent&#45;&gt;ScientificModule</title>
<path fill="none" stroke="#000000" d="M638.8902,-122.1061C638.8902,-122.1061 638.8902,-140.991 638.8902,-140.991"/>
<polygon fill="#000000" stroke="#000000" points="635.3903,-140.9909 638.8902,-150.991 642.3903,-140.991 635.3903,-140.9909"/>
</g>
<!-- ScientificComponent  -->
<g id="node9" class="node">
<title>ScientificComponent </title>
<polygon fill="#80b1d3" stroke="#000000" points="738.4826,-252 599.5174,-252 599.5174,-216 738.4826,-216 738.4826,-252"/>
<text text-anchor="middle" x="669" y="-229.8" font-family="Times,serif" font-size="14.00" fill="#000000">ScientificComponent </text>
</g>
<!-- ScientificModule&#45;&gt;ScientificComponent  -->
<g id="edge8" class="edge">
<title>ScientificModule&#45;&gt;ScientificComponent </title>
<path fill="none" stroke="#000000" stroke-dasharray="1,5" d="M669,-187.1061C669,-187.1061 669,-205.991 669,-205.991"/>
<polygon fill="#000000" stroke="#000000" points="665.5001,-205.9909 669,-215.991 672.5001,-205.991 665.5001,-205.9909"/>
</g>
<!-- MaterialModule -->
<g id="node7" class="node">
<title>MaterialModule</title>
<polygon fill="#8dd3c7" stroke="#000000" points="485.4706,-122 482.4706,-126 461.4706,-126 458.4706,-122 378.5294,-122 378.5294,-86 485.4706,-86 485.4706,-122"/>
<text text-anchor="middle" x="432" y="-99.8" font-family="Times,serif" font-size="14.00" fill="#000000">MaterialModule</text>
</g>
<!-- MaterialModule&#45;&gt;ScientificModule -->
<g id="edge6" class="edge">
<title>MaterialModule&#45;&gt;ScientificModule</title>
<path fill="none" stroke="#000000" d="M432,-122.027C432,-138.3976 432,-160 432,-160 432,-160 602.2326,-160 602.2326,-160"/>
<polygon fill="#000000" stroke="#000000" points="602.2326,-163.5001 612.2326,-160 602.2326,-156.5001 602.2326,-163.5001"/>
</g>
<!-- ScientificRoutingModule -->
<g id="node8" class="node">
<title>ScientificRoutingModule</title>
<polygon fill="#8dd3c7" stroke="#000000" points="360.3173,-122 357.3173,-126 336.3173,-126 333.3173,-122 201.6827,-122 201.6827,-86 360.3173,-86 360.3173,-122"/>
<text text-anchor="middle" x="281" y="-99.8" font-family="Times,serif" font-size="14.00" fill="#000000">ScientificRoutingModule</text>
</g>
<!-- ScientificRoutingModule&#45;&gt;ScientificModule -->
<g id="edge7" class="edge">
<title>ScientificRoutingModule&#45;&gt;ScientificModule</title>
<path fill="none" stroke="#000000" d="M281,-122.1061C281,-141.3391 281,-169 281,-169 281,-169 602.1659,-169 602.1659,-169"/>
<polygon fill="#000000" stroke="#000000" points="602.166,-172.5001 612.1659,-169 602.1659,-165.5001 602.166,-172.5001"/>
</g>
<!-- ScientificService -->
<g id="node10" class="node">
<title>ScientificService</title>
<ellipse fill="#fdb462" stroke="#000000" cx="101" cy="-104" rx="76.9965" ry="18"/>
<text text-anchor="middle" x="101" y="-99.8" font-family="Times,serif" font-size="14.00" fill="#000000">ScientificService</text>
</g>
<!-- ScientificService&#45;&gt;ScientificModule -->
<g id="edge9" class="edge">
<title>ScientificService&#45;&gt;ScientificModule</title>
<path fill="none" stroke="#000000" d="M101,-122.2921C101,-144.2057 101,-178 101,-178 101,-178 602.1996,-178 602.1996,-178"/>
<polygon fill="#000000" stroke="#000000" points="602.1997,-181.5001 612.1996,-178 602.1996,-174.5001 602.1997,-181.5001"/>
</g>
</g>
</svg>
