<?xml version="1.0" encoding="UTF-8" standalone="no"?>
<!DOCTYPE svg PUBLIC "-//W3C//DTD SVG 1.1//EN"
 "http://www.w3.org/Graphics/SVG/1.1/DTD/svg11.dtd">
<!-- Generated by graphviz version 2.40.1 (20161225.0304)
 -->
<!-- Title: dependencies Pages: 1 -->
<svg width="1270pt" height="284pt"
 viewBox="0.00 0.00 1270.00 284.00" xmlns="http://www.w3.org/2000/svg" xmlns:xlink="http://www.w3.org/1999/xlink">
<g id="graph0" class="graph" transform="scale(1 1) rotate(0) translate(4 280)">
<title>dependencies</title>
<polygon fill="#ffffff" stroke="transparent" points="-4,4 -4,-280 1266,-280 1266,4 -4,4"/>
<text text-anchor="start" x="610.0091" y="-42.4" font-family="sans-serif" font-weight="bold" font-size="14.00" fill="#000000">Legend</text>
<polygon fill="#ffffb3" stroke="transparent" points="397,-10 397,-30 417,-30 417,-10 397,-10"/>
<text text-anchor="start" x="420.629" y="-15.4" font-family="sans-serif" font-size="14.00" fill="#000000"> &#160;Declarations</text>
<polygon fill="#8dd3c7" stroke="transparent" points="510,-10 510,-30 530,-30 530,-10 510,-10"/>
<text text-anchor="start" x="533.7251" y="-15.4" font-family="sans-serif" font-size="14.00" fill="#000000"> &#160;Module</text>
<polygon fill="#80b1d3" stroke="transparent" points="596,-10 596,-30 616,-30 616,-10 596,-10"/>
<text text-anchor="start" x="619.7812" y="-15.4" font-family="sans-serif" font-size="14.00" fill="#000000"> &#160;Bootstrap</text>
<polygon fill="#fdb462" stroke="transparent" points="693,-10 693,-30 713,-30 713,-10 693,-10"/>
<text text-anchor="start" x="716.6732" y="-15.4" font-family="sans-serif" font-size="14.00" fill="#000000"> &#160;Providers</text>
<polygon fill="#fb8072" stroke="transparent" points="789,-10 789,-30 809,-30 809,-10 789,-10"/>
<text text-anchor="start" x="812.7258" y="-15.4" font-family="sans-serif" font-size="14.00" fill="#000000"> &#160;Exports</text>
<g id="clust1" class="cluster">
<title>cluster_ScientificModule</title>
<polygon fill="none" stroke="#000000" stroke-dasharray="1,5" points="8,-70 8,-268 1254,-268 1254,-70 8,-70"/>
</g>
<g id="clust2" class="cluster">
<title>cluster_ScientificModule_declarations</title>
<polygon fill="none" stroke="#000000" points="501,-78 501,-130 1246,-130 1246,-78 501,-78"/>
</g>
<g id="clust7" class="cluster">
<title>cluster_ScientificModule_imports</title>
<polygon fill="none" stroke="#000000" points="194,-78 194,-130 493,-130 493,-78 194,-78"/>
</g>
<g id="clust9" class="cluster">
<title>cluster_ScientificModule_bootstrap</title>
<polygon fill="none" stroke="#000000" points="510,-208 510,-260 664,-260 664,-208 510,-208"/>
</g>
<g id="clust10" class="cluster">
<title>cluster_ScientificModule_providers</title>
<polygon fill="none" stroke="#000000" points="16,-78 16,-130 186,-130 186,-78 16,-78"/>
</g>
<!-- BenchmarkingDetailComponent -->
<g id="node1" class="node">
<title>BenchmarkingDetailComponent</title>
<polygon fill="#ffffb3" stroke="#000000" points="1237.9622,-122 1040.0378,-122 1040.0378,-86 1237.9622,-86 1237.9622,-122"/>
<text text-anchor="middle" x="1139" y="-99.8" font-family="Times,serif" font-size="14.00" fill="#000000">BenchmarkingDetailComponent</text>
</g>
<!-- ScientificModule -->
<g id="node5" class="node">
<title>ScientificModule</title>
<polygon fill="#8dd3c7" stroke="#000000" points="643.6994,-187 640.6994,-191 619.6994,-191 616.6994,-187 530.3006,-187 530.3006,-151 643.6994,-151 643.6994,-187"/>
<text text-anchor="middle" x="587" y="-164.8" font-family="Times,serif" font-size="14.00" fill="#000000">ScientificModule</text>
</g>
<!-- BenchmarkingDetailComponent&#45;&gt;ScientificModule -->
<g id="edge1" class="edge">
<title>BenchmarkingDetailComponent&#45;&gt;ScientificModule</title>
<path fill="none" stroke="#000000" d="M1139,-122.2921C1139,-144.2057 1139,-178 1139,-178 1139,-178 653.7369,-178 653.7369,-178"/>
<polygon fill="#000000" stroke="#000000" points="653.7369,-174.5001 643.7369,-178 653.7368,-181.5001 653.7369,-174.5001"/>
</g>
<!-- BenchmarkingListComponent -->
<g id="node2" class="node">
<title>BenchmarkingListComponent</title>
<polygon fill="#ffffb3" stroke="#000000" points="1021.5336,-122 836.4664,-122 836.4664,-86 1021.5336,-86 1021.5336,-122"/>
<text text-anchor="middle" x="929" y="-99.8" font-family="Times,serif" font-size="14.00" fill="#000000">BenchmarkingListComponent</text>
</g>
<!-- BenchmarkingListComponent&#45;&gt;ScientificModule -->
<g id="edge2" class="edge">
<title>BenchmarkingListComponent&#45;&gt;ScientificModule</title>
<path fill="none" stroke="#000000" d="M929,-122.1061C929,-141.3391 929,-169 929,-169 929,-169 653.8583,-169 653.8583,-169"/>
<polygon fill="#000000" stroke="#000000" points="653.8583,-165.5001 643.8583,-169 653.8582,-172.5001 653.8583,-165.5001"/>
</g>
<!-- ScientificComponent -->
<g id="node3" class="node">
<title>ScientificComponent</title>
<polygon fill="#ffffb3" stroke="#000000" points="818.4818,-122 683.5182,-122 683.5182,-86 818.4818,-86 818.4818,-122"/>
<text text-anchor="middle" x="751" y="-99.8" font-family="Times,serif" font-size="14.00" fill="#000000">ScientificComponent</text>
</g>
<!-- ScientificComponent&#45;&gt;ScientificModule -->
<g id="edge3" class="edge">
<title>ScientificComponent&#45;&gt;ScientificModule</title>
<path fill="none" stroke="#000000" d="M751,-122.027C751,-138.3976 751,-160 751,-160 751,-160 653.899,-160 653.899,-160"/>
<polygon fill="#000000" stroke="#000000" points="653.899,-156.5001 643.899,-160 653.8989,-163.5001 653.899,-156.5001"/>
</g>
<!-- ScientificListComponent -->
<g id="node4" class="node">
<title>ScientificListComponent</title>
<polygon fill="#ffffb3" stroke="#000000" points="665.2604,-122 508.7396,-122 508.7396,-86 665.2604,-86 665.2604,-122"/>
<text text-anchor="middle" x="587" y="-99.8" font-family="Times,serif" font-size="14.00" fill="#000000">ScientificListComponent</text>
</g>
<!-- ScientificListComponent&#45;&gt;ScientificModule -->
<g id="edge4" class="edge">
<title>ScientificListComponent&#45;&gt;ScientificModule</title>
<path fill="none" stroke="#000000" d="M587,-122.1061C587,-122.1061 587,-140.991 587,-140.991"/>
<polygon fill="#000000" stroke="#000000" points="583.5001,-140.9909 587,-150.991 590.5001,-140.991 583.5001,-140.9909"/>
</g>
<!-- ScientificComponent  -->
<g id="node8" class="node">
<title>ScientificComponent </title>
<polygon fill="#80b1d3" stroke="#000000" points="656.4826,-252 517.5174,-252 517.5174,-216 656.4826,-216 656.4826,-252"/>
<text text-anchor="middle" x="587" y="-229.8" font-family="Times,serif" font-size="14.00" fill="#000000">ScientificComponent </text>
</g>
<!-- ScientificModule&#45;&gt;ScientificComponent  -->
<g id="edge7" class="edge">
<title>ScientificModule&#45;&gt;ScientificComponent </title>
<path fill="none" stroke="#000000" stroke-dasharray="1,5" d="M587,-187.1061C587,-187.1061 587,-205.991 587,-205.991"/>
<polygon fill="#000000" stroke="#000000" points="583.5001,-205.9909 587,-215.991 590.5001,-205.991 583.5001,-205.9909"/>
</g>
<!-- MaterialModule -->
<g id="node6" class="node">
<title>MaterialModule</title>
<polygon fill="#8dd3c7" stroke="#000000" points="485.4706,-122 482.4706,-126 461.4706,-126 458.4706,-122 378.5294,-122 378.5294,-86 485.4706,-86 485.4706,-122"/>
<text text-anchor="middle" x="432" y="-99.8" font-family="Times,serif" font-size="14.00" fill="#000000">MaterialModule</text>
</g>
<!-- MaterialModule&#45;&gt;ScientificModule -->
<g id="edge5" class="edge">
<title>MaterialModule&#45;&gt;ScientificModule</title>
<path fill="none" stroke="#000000" d="M432,-122.027C432,-138.3976 432,-160 432,-160 432,-160 520.1639,-160 520.1639,-160"/>
<polygon fill="#000000" stroke="#000000" points="520.1639,-163.5001 530.1639,-160 520.1638,-156.5001 520.1639,-163.5001"/>
</g>
<!-- ScientificRoutingModule -->
<g id="node7" class="node">
<title>ScientificRoutingModule</title>
<polygon fill="#8dd3c7" stroke="#000000" points="360.3173,-122 357.3173,-126 336.3173,-126 333.3173,-122 201.6827,-122 201.6827,-86 360.3173,-86 360.3173,-122"/>
<text text-anchor="middle" x="281" y="-99.8" font-family="Times,serif" font-size="14.00" fill="#000000">ScientificRoutingModule</text>
</g>
<!-- ScientificRoutingModule&#45;&gt;ScientificModule -->
<g id="edge6" class="edge">
<title>ScientificRoutingModule&#45;&gt;ScientificModule</title>
<path fill="none" stroke="#000000" d="M281,-122.1061C281,-141.3391 281,-169 281,-169 281,-169 520.1609,-169 520.1609,-169"/>
<polygon fill="#000000" stroke="#000000" points="520.1609,-172.5001 530.1609,-169 520.1609,-165.5001 520.1609,-172.5001"/>
</g>
<!-- ScientificService -->
<g id="node9" class="node">
<title>ScientificService</title>
<ellipse fill="#fdb462" stroke="#000000" cx="101" cy="-104" rx="76.9965" ry="18"/>
<text text-anchor="middle" x="101" y="-99.8" font-family="Times,serif" font-size="14.00" fill="#000000">ScientificService</text>
</g>
<!-- ScientificService&#45;&gt;ScientificModule -->
<g id="edge8" class="edge">
<title>ScientificService&#45;&gt;ScientificModule</title>
<path fill="none" stroke="#000000" d="M101,-122.2921C101,-144.2057 101,-178 101,-178 101,-178 520.2985,-178 520.2985,-178"/>
<polygon fill="#000000" stroke="#000000" points="520.2985,-181.5001 530.2985,-178 520.2984,-174.5001 520.2985,-181.5001"/>
</g>
</g>
</svg>
