<?xml version="1.0" encoding="UTF-8" standalone="no"?>
<!DOCTYPE svg PUBLIC "-//W3C//DTD SVG 1.1//EN"
 "http://www.w3.org/Graphics/SVG/1.1/DTD/svg11.dtd">
<!-- Generated by graphviz version 2.40.1 (20161225.0304)
 -->
<!-- Title: dependencies Pages: 1 -->
<svg width="1889pt" height="284pt"
 viewBox="0.00 0.00 1889.00 284.00" xmlns="http://www.w3.org/2000/svg" xmlns:xlink="http://www.w3.org/1999/xlink">
<g id="graph0" class="graph" transform="scale(1 1) rotate(0) translate(4 280)">
<title>dependencies</title>
<polygon fill="#ffffff" stroke="transparent" points="-4,4 -4,-280 1885,-280 1885,4 -4,4"/>
<text text-anchor="start" x="919.5091" y="-42.4" font-family="sans-serif" font-weight="bold" font-size="14.00" fill="#000000">Legend</text>
<polygon fill="#ffffb3" stroke="transparent" points="706.5,-10 706.5,-30 726.5,-30 726.5,-10 706.5,-10"/>
<text text-anchor="start" x="730.129" y="-15.4" font-family="sans-serif" font-size="14.00" fill="#000000"> &#160;Declarations</text>
<polygon fill="#8dd3c7" stroke="transparent" points="819.5,-10 819.5,-30 839.5,-30 839.5,-10 819.5,-10"/>
<text text-anchor="start" x="843.2251" y="-15.4" font-family="sans-serif" font-size="14.00" fill="#000000"> &#160;Module</text>
<polygon fill="#80b1d3" stroke="transparent" points="905.5,-10 905.5,-30 925.5,-30 925.5,-10 905.5,-10"/>
<text text-anchor="start" x="929.2812" y="-15.4" font-family="sans-serif" font-size="14.00" fill="#000000"> &#160;Bootstrap</text>
<polygon fill="#fdb462" stroke="transparent" points="1002.5,-10 1002.5,-30 1022.5,-30 1022.5,-10 1002.5,-10"/>
<text text-anchor="start" x="1026.1732" y="-15.4" font-family="sans-serif" font-size="14.00" fill="#000000"> &#160;Providers</text>
<polygon fill="#fb8072" stroke="transparent" points="1098.5,-10 1098.5,-30 1118.5,-30 1118.5,-10 1098.5,-10"/>
<text text-anchor="start" x="1122.2258" y="-15.4" font-family="sans-serif" font-size="14.00" fill="#000000"> &#160;Exports</text>
<g id="clust1" class="cluster">
<title>cluster_ToolModule</title>
<polygon fill="none" stroke="#000000" stroke-dasharray="1,5" points="8,-70 8,-268 1873,-268 1873,-70 8,-70"/>
</g>
<g id="clust2" class="cluster">
<title>cluster_ToolModule_declarations</title>
<polygon fill="none" stroke="#000000" points="436,-78 436,-130 1865,-130 1865,-78 436,-78"/>
</g>
<g id="clust13" class="cluster">
<title>cluster_ToolModule_imports</title>
<polygon fill="none" stroke="#000000" points="156,-78 156,-130 428,-130 428,-78 156,-78"/>
</g>
<g id="clust15" class="cluster">
<title>cluster_ToolModule_bootstrap</title>
<polygon fill="none" stroke="#000000" points="887,-208 887,-260 1015,-260 1015,-208 887,-208"/>
</g>
<g id="clust16" class="cluster">
<title>cluster_ToolModule_providers</title>
<polygon fill="none" stroke="#000000" points="16,-78 16,-130 148,-130 148,-78 16,-78"/>
</g>
<!-- AboutComponent -->
<g id="node1" class="node">
<title>AboutComponent</title>
<polygon fill="#ffffb3" stroke="#000000" points="1857.3301,-122 1740.6699,-122 1740.6699,-86 1857.3301,-86 1857.3301,-122"/>
<text text-anchor="middle" x="1799" y="-99.8" font-family="Times,serif" font-size="14.00" fill="#000000">AboutComponent</text>
</g>
<!-- ToolModule -->
<g id="node11" class="node">
<title>ToolModule</title>
<polygon fill="#8dd3c7" stroke="#000000" points="993.993,-187 990.993,-191 969.993,-191 966.993,-187 908.007,-187 908.007,-151 993.993,-151 993.993,-187"/>
<text text-anchor="middle" x="951" y="-164.8" font-family="Times,serif" font-size="14.00" fill="#000000">ToolModule</text>
</g>
<!-- AboutComponent&#45;&gt;ToolModule -->
<g id="edge1" class="edge">
<title>AboutComponent&#45;&gt;ToolModule</title>
<path fill="none" stroke="#000000" d="M1799,-122.0908C1799,-145.1328 1799,-182 1799,-182 1799,-182 1004.2183,-182 1004.2183,-182"/>
<polygon fill="#000000" stroke="#000000" points="1004.2183,-178.5001 994.2183,-182 1004.2182,-185.5001 1004.2183,-178.5001"/>
</g>
<!-- ChartIdPipe -->
<g id="node2" class="node">
<title>ChartIdPipe</title>
<polygon fill="#ffffb3" stroke="#000000" points="1722.6515,-122 1639.3485,-122 1639.3485,-86 1722.6515,-86 1722.6515,-122"/>
<text text-anchor="middle" x="1681" y="-99.8" font-family="Times,serif" font-size="14.00" fill="#000000">ChartIdPipe</text>
</g>
<!-- ChartIdPipe&#45;&gt;ToolModule -->
<g id="edge2" class="edge">
<title>ChartIdPipe&#45;&gt;ToolModule</title>
<path fill="none" stroke="#000000" d="M1681,-122.0449C1681,-143.6623 1681,-177 1681,-177 1681,-177 1004.2087,-177 1004.2087,-177"/>
<polygon fill="#000000" stroke="#000000" points="1004.2087,-173.5001 994.2087,-177 1004.2087,-180.5001 1004.2087,-173.5001"/>
</g>
<!-- DashboardComponent -->
<g id="node3" class="node">
<title>DashboardComponent</title>
<polygon fill="#ffffb3" stroke="#000000" points="1620.9734,-122 1479.0266,-122 1479.0266,-86 1620.9734,-86 1620.9734,-122"/>
<text text-anchor="middle" x="1550" y="-99.8" font-family="Times,serif" font-size="14.00" fill="#000000">DashboardComponent</text>
</g>
<!-- DashboardComponent&#45;&gt;ToolModule -->
<g id="edge3" class="edge">
<title>DashboardComponent&#45;&gt;ToolModule</title>
<path fill="none" stroke="#000000" d="M1550,-122.2228C1550,-142.3652 1550,-172 1550,-172 1550,-172 1004.0786,-172 1004.0786,-172"/>
<polygon fill="#000000" stroke="#000000" points="1004.0786,-168.5001 994.0786,-172 1004.0786,-175.5001 1004.0786,-168.5001"/>
</g>
<!-- KeyValuePipe -->
<g id="node4" class="node">
<title>KeyValuePipe</title>
<polygon fill="#ffffb3" stroke="#000000" points="1460.6361,-122 1363.3639,-122 1363.3639,-86 1460.6361,-86 1460.6361,-122"/>
<text text-anchor="middle" x="1412" y="-99.8" font-family="Times,serif" font-size="14.00" fill="#000000">KeyValuePipe</text>
</g>
<!-- KeyValuePipe&#45;&gt;ToolModule -->
<g id="edge4" class="edge">
<title>KeyValuePipe&#45;&gt;ToolModule</title>
<path fill="none" stroke="#000000" d="M1412,-122.2222C1412,-140.8285 1412,-167 1412,-167 1412,-167 1004.3698,-167 1004.3698,-167"/>
<polygon fill="#000000" stroke="#000000" points="1004.3698,-163.5001 994.3698,-167 1004.3697,-170.5001 1004.3698,-163.5001"/>
</g>
<!-- PageNotFoundComponent -->
<g id="node5" class="node">
<title>PageNotFoundComponent</title>
<polygon fill="#ffffb3" stroke="#000000" points="1345.8243,-122 1180.1757,-122 1180.1757,-86 1345.8243,-86 1345.8243,-122"/>
<text text-anchor="middle" x="1263" y="-99.8" font-family="Times,serif" font-size="14.00" fill="#000000">PageNotFoundComponent</text>
</g>
<!-- PageNotFoundComponent&#45;&gt;ToolModule -->
<g id="edge5" class="edge">
<title>PageNotFoundComponent&#45;&gt;ToolModule</title>
<path fill="none" stroke="#000000" d="M1263,-122.0336C1263,-139.0597 1263,-162 1263,-162 1263,-162 1004.0547,-162 1004.0547,-162"/>
<polygon fill="#000000" stroke="#000000" points="1004.0547,-158.5001 994.0547,-162 1004.0547,-165.5001 1004.0547,-158.5001"/>
</g>
<!-- PrivateComponent -->
<g id="node6" class="node">
<title>PrivateComponent</title>
<polygon fill="#ffffb3" stroke="#000000" points="1162.486,-122 1041.514,-122 1041.514,-86 1162.486,-86 1162.486,-122"/>
<text text-anchor="middle" x="1102" y="-99.8" font-family="Times,serif" font-size="14.00" fill="#000000">PrivateComponent</text>
</g>
<!-- PrivateComponent&#45;&gt;ToolModule -->
<g id="edge6" class="edge">
<title>PrivateComponent&#45;&gt;ToolModule</title>
<path fill="none" stroke="#000000" d="M1102,-122.2396C1102,-137.5706 1102,-157 1102,-157 1102,-157 1004.2705,-157 1004.2705,-157"/>
<polygon fill="#000000" stroke="#000000" points="1004.2706,-153.5001 994.2705,-157 1004.2705,-160.5001 1004.2706,-153.5001"/>
</g>
<!-- SourceBadgeClassPipe -->
<g id="node7" class="node">
<title>SourceBadgeClassPipe</title>
<polygon fill="#ffffb3" stroke="#000000" points="1023.8571,-122 878.1429,-122 878.1429,-86 1023.8571,-86 1023.8571,-122"/>
<text text-anchor="middle" x="951" y="-99.8" font-family="Times,serif" font-size="14.00" fill="#000000">SourceBadgeClassPipe</text>
</g>
<!-- SourceBadgeClassPipe&#45;&gt;ToolModule -->
<g id="edge7" class="edge">
<title>SourceBadgeClassPipe&#45;&gt;ToolModule</title>
<path fill="none" stroke="#000000" d="M951,-122.1061C951,-122.1061 951,-140.991 951,-140.991"/>
<polygon fill="#000000" stroke="#000000" points="947.5001,-140.9909 951,-150.991 954.5001,-140.991 947.5001,-140.9909"/>
</g>
<!-- StatisticsComponent -->
<g id="node8" class="node">
<title>StatisticsComponent</title>
<polygon fill="#ffffb3" stroke="#000000" points="859.8864,-122 728.1136,-122 728.1136,-86 859.8864,-86 859.8864,-122"/>
<text text-anchor="middle" x="794" y="-99.8" font-family="Times,serif" font-size="14.00" fill="#000000">StatisticsComponent</text>
</g>
<!-- StatisticsComponent&#45;&gt;ToolModule -->
<g id="edge8" class="edge">
<title>StatisticsComponent&#45;&gt;ToolModule</title>
<path fill="none" stroke="#000000" d="M794,-122.2396C794,-137.5706 794,-157 794,-157 794,-157 897.6835,-157 897.6835,-157"/>
<polygon fill="#000000" stroke="#000000" points="897.6835,-160.5001 907.6835,-157 897.6834,-153.5001 897.6835,-160.5001"/>
</g>
<!-- ToolComponent -->
<g id="node9" class="node">
<title>ToolComponent</title>
<polygon fill="#ffffb3" stroke="#000000" points="709.7758,-122 602.2242,-122 602.2242,-86 709.7758,-86 709.7758,-122"/>
<text text-anchor="middle" x="656" y="-99.8" font-family="Times,serif" font-size="14.00" fill="#000000">ToolComponent</text>
</g>
<!-- ToolComponent&#45;&gt;ToolModule -->
<g id="edge9" class="edge">
<title>ToolComponent&#45;&gt;ToolModule</title>
<path fill="none" stroke="#000000" d="M656,-122.0336C656,-139.0597 656,-162 656,-162 656,-162 897.7885,-162 897.7885,-162"/>
<polygon fill="#000000" stroke="#000000" points="897.7886,-165.5001 907.7885,-162 897.7885,-158.5001 897.7886,-165.5001"/>
</g>
<!-- ToolTableComponent -->
<g id="node10" class="node">
<title>ToolTableComponent</title>
<polygon fill="#ffffb3" stroke="#000000" points="583.6484,-122 444.3516,-122 444.3516,-86 583.6484,-86 583.6484,-122"/>
<text text-anchor="middle" x="514" y="-99.8" font-family="Times,serif" font-size="14.00" fill="#000000">ToolTableComponent</text>
</g>
<!-- ToolTableComponent&#45;&gt;ToolModule -->
<g id="edge10" class="edge">
<title>ToolTableComponent&#45;&gt;ToolModule</title>
<path fill="none" stroke="#000000" d="M514,-122.2222C514,-140.8285 514,-167 514,-167 514,-167 897.9028,-167 897.9028,-167"/>
<polygon fill="#000000" stroke="#000000" points="897.9028,-170.5001 907.9028,-167 897.9028,-163.5001 897.9028,-170.5001"/>
</g>
<!-- ToolComponent  -->
<g id="node14" class="node">
<title>ToolComponent </title>
<polygon fill="#80b1d3" stroke="#000000" points="1006.7759,-252 895.2241,-252 895.2241,-216 1006.7759,-216 1006.7759,-252"/>
<text text-anchor="middle" x="951" y="-229.8" font-family="Times,serif" font-size="14.00" fill="#000000">ToolComponent </text>
</g>
<!-- ToolModule&#45;&gt;ToolComponent  -->
<g id="edge13" class="edge">
<title>ToolModule&#45;&gt;ToolComponent </title>
<path fill="none" stroke="#000000" stroke-dasharray="1,5" d="M951,-187.1061C951,-187.1061 951,-205.991 951,-205.991"/>
<polygon fill="#000000" stroke="#000000" points="947.5001,-205.9909 951,-215.991 954.5001,-205.991 947.5001,-205.9909"/>
</g>
<!-- MaterialModule -->
<g id="node12" class="node">
<title>MaterialModule</title>
<polygon fill="#8dd3c7" stroke="#000000" points="420.4706,-122 417.4706,-126 396.4706,-126 393.4706,-122 313.5294,-122 313.5294,-86 420.4706,-86 420.4706,-122"/>
<text text-anchor="middle" x="367" y="-99.8" font-family="Times,serif" font-size="14.00" fill="#000000">MaterialModule</text>
</g>
<!-- MaterialModule&#45;&gt;ToolModule -->
<g id="edge11" class="edge">
<title>MaterialModule&#45;&gt;ToolModule</title>
<path fill="none" stroke="#000000" d="M367,-122.2228C367,-142.3652 367,-172 367,-172 367,-172 897.5822,-172 897.5822,-172"/>
<polygon fill="#000000" stroke="#000000" points="897.5822,-175.5001 907.5822,-172 897.5822,-168.5001 897.5822,-175.5001"/>
</g>
<!-- ToolRoutingModule -->
<g id="node13" class="node">
<title>ToolRoutingModule</title>
<polygon fill="#8dd3c7" stroke="#000000" points="295.6108,-122 292.6108,-126 271.6108,-126 268.6108,-122 164.3892,-122 164.3892,-86 295.6108,-86 295.6108,-122"/>
<text text-anchor="middle" x="230" y="-99.8" font-family="Times,serif" font-size="14.00" fill="#000000">ToolRoutingModule</text>
</g>
<!-- ToolRoutingModule&#45;&gt;ToolModule -->
<g id="edge12" class="edge">
<title>ToolRoutingModule&#45;&gt;ToolModule</title>
<path fill="none" stroke="#000000" d="M230,-122.0449C230,-143.6623 230,-177 230,-177 230,-177 897.79,-177 897.79,-177"/>
<polygon fill="#000000" stroke="#000000" points="897.79,-180.5001 907.79,-177 897.79,-173.5001 897.79,-180.5001"/>
</g>
<!-- ToolService -->
<g id="node15" class="node">
<title>ToolService</title>
<ellipse fill="#fdb462" stroke="#000000" cx="82" cy="-104" rx="58.4648" ry="18"/>
<text text-anchor="middle" x="82" y="-99.8" font-family="Times,serif" font-size="14.00" fill="#000000">ToolService</text>
</g>
<!-- ToolService&#45;&gt;ToolModule -->
<g id="edge14" class="edge">
<title>ToolService&#45;&gt;ToolModule</title>
<path fill="none" stroke="#000000" d="M82,-122.0908C82,-145.1328 82,-182 82,-182 82,-182 897.9062,-182 897.9062,-182"/>
<polygon fill="#000000" stroke="#000000" points="897.9062,-185.5001 907.9062,-182 897.9061,-178.5001 897.9062,-185.5001"/>
</g>
</g>
</svg>
