<?xml version="1.0" encoding="UTF-8" standalone="no"?>
<!DOCTYPE svg PUBLIC "-//W3C//DTD SVG 1.1//EN"
 "http://www.w3.org/Graphics/SVG/1.1/DTD/svg11.dtd">
<!-- Generated by graphviz version 2.40.1 (20161225.0304)
 -->
<!-- Title: dependencies Pages: 1 -->
<svg width="1743pt" height="284pt"
 viewBox="0.00 0.00 1743.00 284.00" xmlns="http://www.w3.org/2000/svg" xmlns:xlink="http://www.w3.org/1999/xlink">
<g id="graph0" class="graph" transform="scale(1 1) rotate(0) translate(4 280)">
<title>dependencies</title>
<polygon fill="#ffffff" stroke="transparent" points="-4,4 -4,-280 1739,-280 1739,4 -4,4"/>
<text text-anchor="start" x="846.5091" y="-42.4" font-family="sans-serif" font-weight="bold" font-size="14.00" fill="#000000">Legend</text>
<polygon fill="#ffffb3" stroke="transparent" points="633.5,-10 633.5,-30 653.5,-30 653.5,-10 633.5,-10"/>
<text text-anchor="start" x="657.129" y="-15.4" font-family="sans-serif" font-size="14.00" fill="#000000"> &#160;Declarations</text>
<polygon fill="#8dd3c7" stroke="transparent" points="746.5,-10 746.5,-30 766.5,-30 766.5,-10 746.5,-10"/>
<text text-anchor="start" x="770.2251" y="-15.4" font-family="sans-serif" font-size="14.00" fill="#000000"> &#160;Module</text>
<polygon fill="#80b1d3" stroke="transparent" points="832.5,-10 832.5,-30 852.5,-30 852.5,-10 832.5,-10"/>
<text text-anchor="start" x="856.2812" y="-15.4" font-family="sans-serif" font-size="14.00" fill="#000000"> &#160;Bootstrap</text>
<polygon fill="#fdb462" stroke="transparent" points="929.5,-10 929.5,-30 949.5,-30 949.5,-10 929.5,-10"/>
<text text-anchor="start" x="953.1732" y="-15.4" font-family="sans-serif" font-size="14.00" fill="#000000"> &#160;Providers</text>
<polygon fill="#fb8072" stroke="transparent" points="1025.5,-10 1025.5,-30 1045.5,-30 1045.5,-10 1025.5,-10"/>
<text text-anchor="start" x="1049.2258" y="-15.4" font-family="sans-serif" font-size="14.00" fill="#000000"> &#160;Exports</text>
<g id="clust1" class="cluster">
<title>cluster_ToolModule</title>
<polygon fill="none" stroke="#000000" stroke-dasharray="1,5" points="8,-70 8,-268 1727,-268 1727,-70 8,-70"/>
</g>
<g id="clust2" class="cluster">
<title>cluster_ToolModule_declarations</title>
<polygon fill="none" stroke="#000000" points="590,-78 590,-130 1719,-130 1719,-78 590,-78"/>
</g>
<g id="clust11" class="cluster">
<title>cluster_ToolModule_imports</title>
<polygon fill="none" stroke="#000000" points="156,-78 156,-130 582,-130 582,-78 156,-78"/>
</g>
<g id="clust13" class="cluster">
<title>cluster_ToolModule_bootstrap</title>
<polygon fill="none" stroke="#000000" points="825,-208 825,-260 953,-260 953,-208 825,-208"/>
</g>
<g id="clust14" class="cluster">
<title>cluster_ToolModule_providers</title>
<polygon fill="none" stroke="#000000" points="16,-78 16,-130 148,-130 148,-78 16,-78"/>
</g>
<!-- ChartIdPipe -->
<g id="node1" class="node">
<title>ChartIdPipe</title>
<polygon fill="#ffffb3" stroke="#000000" points="1710.6515,-122 1627.3485,-122 1627.3485,-86 1710.6515,-86 1710.6515,-122"/>
<text text-anchor="middle" x="1669" y="-99.8" font-family="Times,serif" font-size="14.00" fill="#000000">ChartIdPipe</text>
</g>
<!-- ToolModule -->
<g id="node9" class="node">
<title>ToolModule</title>
<polygon fill="#8dd3c7" stroke="#000000" points="931.993,-187 928.993,-191 907.993,-191 904.993,-187 846.007,-187 846.007,-151 931.993,-151 931.993,-187"/>
<text text-anchor="middle" x="889" y="-164.8" font-family="Times,serif" font-size="14.00" fill="#000000">ToolModule</text>
</g>
<!-- ChartIdPipe&#45;&gt;ToolModule -->
<g id="edge1" class="edge">
<title>ChartIdPipe&#45;&gt;ToolModule</title>
<path fill="none" stroke="#000000" d="M1669,-122.2479C1669,-145.0179 1669,-181 1669,-181 1669,-181 942.0472,-181 942.0472,-181"/>
<polygon fill="#000000" stroke="#000000" points="942.0473,-177.5001 932.0472,-181 942.0472,-184.5001 942.0473,-177.5001"/>
</g>
<!-- KeyValuePipe -->
<g id="node2" class="node">
<title>KeyValuePipe</title>
<polygon fill="#ffffb3" stroke="#000000" points="1608.6361,-122 1511.3639,-122 1511.3639,-86 1608.6361,-86 1608.6361,-122"/>
<text text-anchor="middle" x="1560" y="-99.8" font-family="Times,serif" font-size="14.00" fill="#000000">KeyValuePipe</text>
</g>
<!-- KeyValuePipe&#45;&gt;ToolModule -->
<g id="edge2" class="edge">
<title>KeyValuePipe&#45;&gt;ToolModule</title>
<path fill="none" stroke="#000000" d="M1560,-122.2843C1560,-143.3211 1560,-175 1560,-175 1560,-175 941.9948,-175 941.9948,-175"/>
<polygon fill="#000000" stroke="#000000" points="941.9948,-171.5001 931.9948,-175 941.9948,-178.5001 941.9948,-171.5001"/>
</g>
<!-- SourceBadgeClassPipe -->
<g id="node3" class="node">
<title>SourceBadgeClassPipe</title>
<polygon fill="#ffffb3" stroke="#000000" points="1492.8571,-122 1347.1429,-122 1347.1429,-86 1492.8571,-86 1492.8571,-122"/>
<text text-anchor="middle" x="1420" y="-99.8" font-family="Times,serif" font-size="14.00" fill="#000000">SourceBadgeClassPipe</text>
</g>
<!-- SourceBadgeClassPipe&#45;&gt;ToolModule -->
<g id="edge3" class="edge">
<title>SourceBadgeClassPipe&#45;&gt;ToolModule</title>
<path fill="none" stroke="#000000" d="M1420,-122.1061C1420,-141.3391 1420,-169 1420,-169 1420,-169 942.0042,-169 942.0042,-169"/>
<polygon fill="#000000" stroke="#000000" points="942.0042,-165.5001 932.0042,-169 942.0041,-172.5001 942.0042,-165.5001"/>
</g>
<!-- ToolComponent -->
<g id="node4" class="node">
<title>ToolComponent</title>
<polygon fill="#ffffb3" stroke="#000000" points="1328.7758,-122 1221.2242,-122 1221.2242,-86 1328.7758,-86 1328.7758,-122"/>
<text text-anchor="middle" x="1275" y="-99.8" font-family="Times,serif" font-size="14.00" fill="#000000">ToolComponent</text>
</g>
<!-- ToolComponent&#45;&gt;ToolModule -->
<g id="edge4" class="edge">
<title>ToolComponent&#45;&gt;ToolModule</title>
<path fill="none" stroke="#000000" d="M1275,-122.0225C1275,-139.3734 1275,-163 1275,-163 1275,-163 942.1555,-163 942.1555,-163"/>
<polygon fill="#000000" stroke="#000000" points="942.1556,-159.5001 932.1555,-163 942.1555,-166.5001 942.1556,-159.5001"/>
</g>
<!-- ToolDetailComponent -->
<g id="node5" class="node">
<title>ToolDetailComponent</title>
<polygon fill="#ffffb3" stroke="#000000" points="1202.9832,-122 1061.0168,-122 1061.0168,-86 1202.9832,-86 1202.9832,-122"/>
<text text-anchor="middle" x="1132" y="-99.8" font-family="Times,serif" font-size="14.00" fill="#000000">ToolDetailComponent</text>
</g>
<!-- ToolDetailComponent&#45;&gt;ToolModule -->
<g id="edge5" class="edge">
<title>ToolDetailComponent&#45;&gt;ToolModule</title>
<path fill="none" stroke="#000000" d="M1132,-122.2396C1132,-137.5706 1132,-157 1132,-157 1132,-157 942.1635,-157 942.1635,-157"/>
<polygon fill="#000000" stroke="#000000" points="942.1636,-153.5001 932.1635,-157 942.1635,-160.5001 942.1636,-153.5001"/>
</g>
<!-- ToolDialogComponent -->
<g id="node6" class="node">
<title>ToolDialogComponent</title>
<polygon fill="#ffffb3" stroke="#000000" points="1042.8781,-122 897.1219,-122 897.1219,-86 1042.8781,-86 1042.8781,-122"/>
<text text-anchor="middle" x="970" y="-99.8" font-family="Times,serif" font-size="14.00" fill="#000000">ToolDialogComponent</text>
</g>
<!-- ToolDialogComponent&#45;&gt;ToolModule -->
<g id="edge6" class="edge">
<title>ToolDialogComponent&#45;&gt;ToolModule</title>
<path fill="none" stroke="#000000" d="M914.5288,-122.1061C914.5288,-122.1061 914.5288,-140.991 914.5288,-140.991"/>
<polygon fill="#000000" stroke="#000000" points="911.0288,-140.9909 914.5288,-150.991 918.0288,-140.991 911.0288,-140.9909"/>
</g>
<!-- ToolTableComponent -->
<g id="node7" class="node">
<title>ToolTableComponent</title>
<polygon fill="#ffffb3" stroke="#000000" points="878.6484,-122 739.3516,-122 739.3516,-86 878.6484,-86 878.6484,-122"/>
<text text-anchor="middle" x="809" y="-99.8" font-family="Times,serif" font-size="14.00" fill="#000000">ToolTableComponent</text>
</g>
<!-- ToolTableComponent&#45;&gt;ToolModule -->
<g id="edge7" class="edge">
<title>ToolTableComponent&#45;&gt;ToolModule</title>
<path fill="none" stroke="#000000" d="M862.4138,-122.1061C862.4138,-122.1061 862.4138,-140.991 862.4138,-140.991"/>
<polygon fill="#000000" stroke="#000000" points="858.9138,-140.9909 862.4138,-150.991 865.9138,-140.991 858.9138,-140.9909"/>
</g>
<!-- UptimeComponent -->
<g id="node8" class="node">
<title>UptimeComponent</title>
<polygon fill="#ffffb3" stroke="#000000" points="721.8258,-122 598.1742,-122 598.1742,-86 721.8258,-86 721.8258,-122"/>
<text text-anchor="middle" x="660" y="-99.8" font-family="Times,serif" font-size="14.00" fill="#000000">UptimeComponent</text>
</g>
<!-- UptimeComponent&#45;&gt;ToolModule -->
<g id="edge8" class="edge">
<title>UptimeComponent&#45;&gt;ToolModule</title>
<path fill="none" stroke="#000000" d="M660,-122.2396C660,-137.5706 660,-157 660,-157 660,-157 835.9269,-157 835.9269,-157"/>
<polygon fill="#000000" stroke="#000000" points="835.9269,-160.5001 845.9269,-157 835.9268,-153.5001 835.9269,-160.5001"/>
</g>
<!-- ToolComponent  -->
<g id="node13" class="node">
<title>ToolComponent </title>
<polygon fill="#80b1d3" stroke="#000000" points="944.7759,-252 833.2241,-252 833.2241,-216 944.7759,-216 944.7759,-252"/>
<text text-anchor="middle" x="889" y="-229.8" font-family="Times,serif" font-size="14.00" fill="#000000">ToolComponent </text>
</g>
<!-- ToolModule&#45;&gt;ToolComponent  -->
<g id="edge12" class="edge">
<title>ToolModule&#45;&gt;ToolComponent </title>
<path fill="none" stroke="#000000" stroke-dasharray="1,5" d="M889,-187.1061C889,-187.1061 889,-205.991 889,-205.991"/>
<polygon fill="#000000" stroke="#000000" points="885.5001,-205.9909 889,-215.991 892.5001,-205.991 885.5001,-205.9909"/>
</g>
<!-- ContentTableModule -->
<g id="node10" class="node">
<title>ContentTableModule</title>
<polygon fill="#8dd3c7" stroke="#000000" points="573.7548,-122 570.7548,-126 549.7548,-126 546.7548,-122 438.2452,-122 438.2452,-86 573.7548,-86 573.7548,-122"/>
<text text-anchor="middle" x="506" y="-99.8" font-family="Times,serif" font-size="14.00" fill="#000000">ContentTableModule</text>
</g>
<!-- ContentTableModule&#45;&gt;ToolModule -->
<g id="edge9" class="edge">
<title>ContentTableModule&#45;&gt;ToolModule</title>
<path fill="none" stroke="#000000" d="M506,-122.0225C506,-139.3734 506,-163 506,-163 506,-163 835.8095,-163 835.8095,-163"/>
<polygon fill="#000000" stroke="#000000" points="835.8096,-166.5001 845.8095,-163 835.8095,-159.5001 835.8096,-166.5001"/>
</g>
<!-- MaterialModule -->
<g id="node11" class="node">
<title>MaterialModule</title>
<polygon fill="#8dd3c7" stroke="#000000" points="420.4706,-122 417.4706,-126 396.4706,-126 393.4706,-122 313.5294,-122 313.5294,-86 420.4706,-86 420.4706,-122"/>
<text text-anchor="middle" x="367" y="-99.8" font-family="Times,serif" font-size="14.00" fill="#000000">MaterialModule</text>
</g>
<!-- MaterialModule&#45;&gt;ToolModule -->
<g id="edge10" class="edge">
<title>MaterialModule&#45;&gt;ToolModule</title>
<path fill="none" stroke="#000000" d="M367,-122.1061C367,-141.3391 367,-169 367,-169 367,-169 835.8384,-169 835.8384,-169"/>
<polygon fill="#000000" stroke="#000000" points="835.8385,-172.5001 845.8384,-169 835.8384,-165.5001 835.8385,-172.5001"/>
</g>
<!-- ToolRoutingModule -->
<g id="node12" class="node">
<title>ToolRoutingModule</title>
<polygon fill="#8dd3c7" stroke="#000000" points="295.6108,-122 292.6108,-126 271.6108,-126 268.6108,-122 164.3892,-122 164.3892,-86 295.6108,-86 295.6108,-122"/>
<text text-anchor="middle" x="230" y="-99.8" font-family="Times,serif" font-size="14.00" fill="#000000">ToolRoutingModule</text>
</g>
<!-- ToolRoutingModule&#45;&gt;ToolModule -->
<g id="edge11" class="edge">
<title>ToolRoutingModule&#45;&gt;ToolModule</title>
<path fill="none" stroke="#000000" d="M230,-122.2843C230,-143.3211 230,-175 230,-175 230,-175 835.7612,-175 835.7612,-175"/>
<polygon fill="#000000" stroke="#000000" points="835.7612,-178.5001 845.7612,-175 835.7611,-171.5001 835.7612,-178.5001"/>
</g>
<!-- ToolService -->
<g id="node14" class="node">
<title>ToolService</title>
<ellipse fill="#fdb462" stroke="#000000" cx="82" cy="-104" rx="58.4648" ry="18"/>
<text text-anchor="middle" x="82" y="-99.8" font-family="Times,serif" font-size="14.00" fill="#000000">ToolService</text>
</g>
<!-- ToolService&#45;&gt;ToolModule -->
<g id="edge13" class="edge">
<title>ToolService&#45;&gt;ToolModule</title>
<path fill="none" stroke="#000000" d="M82,-122.2479C82,-145.0179 82,-181 82,-181 82,-181 835.8975,-181 835.8975,-181"/>
<polygon fill="#000000" stroke="#000000" points="835.8975,-184.5001 845.8975,-181 835.8974,-177.5001 835.8975,-184.5001"/>
</g>
</g>
</svg>
