<?xml version="1.0" encoding="UTF-8" standalone="no"?>
<!DOCTYPE svg PUBLIC "-//W3C//DTD SVG 1.1//EN"
 "http://www.w3.org/Graphics/SVG/1.1/DTD/svg11.dtd">
<!-- Generated by graphviz version 2.40.1 (20161225.0304)
 -->
<!-- Title: dependencies Pages: 1 -->
<svg width="1579pt" height="284pt"
 viewBox="0.00 0.00 1579.00 284.00" xmlns="http://www.w3.org/2000/svg" xmlns:xlink="http://www.w3.org/1999/xlink">
<g id="graph0" class="graph" transform="scale(1 1) rotate(0) translate(4 280)">
<title>dependencies</title>
<polygon fill="#ffffff" stroke="transparent" points="-4,4 -4,-280 1575,-280 1575,4 -4,4"/>
<text text-anchor="start" x="764.5091" y="-42.4" font-family="sans-serif" font-weight="bold" font-size="14.00" fill="#000000">Legend</text>
<polygon fill="#ffffb3" stroke="transparent" points="551.5,-10 551.5,-30 571.5,-30 571.5,-10 551.5,-10"/>
<text text-anchor="start" x="575.129" y="-15.4" font-family="sans-serif" font-size="14.00" fill="#000000"> &#160;Declarations</text>
<polygon fill="#8dd3c7" stroke="transparent" points="664.5,-10 664.5,-30 684.5,-30 684.5,-10 664.5,-10"/>
<text text-anchor="start" x="688.2251" y="-15.4" font-family="sans-serif" font-size="14.00" fill="#000000"> &#160;Module</text>
<polygon fill="#80b1d3" stroke="transparent" points="750.5,-10 750.5,-30 770.5,-30 770.5,-10 750.5,-10"/>
<text text-anchor="start" x="774.2812" y="-15.4" font-family="sans-serif" font-size="14.00" fill="#000000"> &#160;Bootstrap</text>
<polygon fill="#fdb462" stroke="transparent" points="847.5,-10 847.5,-30 867.5,-30 867.5,-10 847.5,-10"/>
<text text-anchor="start" x="871.1732" y="-15.4" font-family="sans-serif" font-size="14.00" fill="#000000"> &#160;Providers</text>
<polygon fill="#fb8072" stroke="transparent" points="943.5,-10 943.5,-30 963.5,-30 963.5,-10 943.5,-10"/>
<text text-anchor="start" x="967.2258" y="-15.4" font-family="sans-serif" font-size="14.00" fill="#000000"> &#160;Exports</text>
<g id="clust1" class="cluster">
<title>cluster_ToolModule</title>
<polygon fill="none" stroke="#000000" stroke-dasharray="1,5" points="8,-70 8,-268 1563,-268 1563,-70 8,-70"/>
</g>
<g id="clust2" class="cluster">
<title>cluster_ToolModule_declarations</title>
<polygon fill="none" stroke="#000000" points="436,-78 436,-130 1555,-130 1555,-78 436,-78"/>
</g>
<g id="clust11" class="cluster">
<title>cluster_ToolModule_imports</title>
<polygon fill="none" stroke="#000000" points="156,-78 156,-130 428,-130 428,-78 156,-78"/>
</g>
<g id="clust13" class="cluster">
<title>cluster_ToolModule_bootstrap</title>
<polygon fill="none" stroke="#000000" points="737,-208 737,-260 865,-260 865,-208 737,-208"/>
</g>
<g id="clust14" class="cluster">
<title>cluster_ToolModule_providers</title>
<polygon fill="none" stroke="#000000" points="16,-78 16,-130 148,-130 148,-78 16,-78"/>
</g>
<!-- AboutComponent -->
<g id="node1" class="node">
<title>AboutComponent</title>
<polygon fill="#ffffb3" stroke="#000000" points="1547.3301,-122 1430.6699,-122 1430.6699,-86 1547.3301,-86 1547.3301,-122"/>
<text text-anchor="middle" x="1489" y="-99.8" font-family="Times,serif" font-size="14.00" fill="#000000">AboutComponent</text>
</g>
<!-- ToolModule -->
<g id="node9" class="node">
<title>ToolModule</title>
<polygon fill="#8dd3c7" stroke="#000000" points="843.993,-187 840.993,-191 819.993,-191 816.993,-187 758.007,-187 758.007,-151 843.993,-151 843.993,-187"/>
<text text-anchor="middle" x="801" y="-164.8" font-family="Times,serif" font-size="14.00" fill="#000000">ToolModule</text>
</g>
<!-- AboutComponent&#45;&gt;ToolModule -->
<g id="edge1" class="edge">
<title>AboutComponent&#45;&gt;ToolModule</title>
<path fill="none" stroke="#000000" d="M1489,-122.2479C1489,-145.0179 1489,-181 1489,-181 1489,-181 854.0375,-181 854.0375,-181"/>
<polygon fill="#000000" stroke="#000000" points="854.0375,-177.5001 844.0375,-181 854.0374,-184.5001 854.0375,-177.5001"/>
</g>
<!-- ChartIdPipe -->
<g id="node2" class="node">
<title>ChartIdPipe</title>
<polygon fill="#ffffb3" stroke="#000000" points="1412.6515,-122 1329.3485,-122 1329.3485,-86 1412.6515,-86 1412.6515,-122"/>
<text text-anchor="middle" x="1371" y="-99.8" font-family="Times,serif" font-size="14.00" fill="#000000">ChartIdPipe</text>
</g>
<!-- ChartIdPipe&#45;&gt;ToolModule -->
<g id="edge2" class="edge">
<title>ChartIdPipe&#45;&gt;ToolModule</title>
<path fill="none" stroke="#000000" d="M1371,-122.2843C1371,-143.3211 1371,-175 1371,-175 1371,-175 854.3105,-175 854.3105,-175"/>
<polygon fill="#000000" stroke="#000000" points="854.3105,-171.5001 844.3105,-175 854.3104,-178.5001 854.3105,-171.5001"/>
</g>
<!-- KeyValuePipe -->
<g id="node3" class="node">
<title>KeyValuePipe</title>
<polygon fill="#ffffb3" stroke="#000000" points="1310.6361,-122 1213.3639,-122 1213.3639,-86 1310.6361,-86 1310.6361,-122"/>
<text text-anchor="middle" x="1262" y="-99.8" font-family="Times,serif" font-size="14.00" fill="#000000">KeyValuePipe</text>
</g>
<!-- KeyValuePipe&#45;&gt;ToolModule -->
<g id="edge3" class="edge">
<title>KeyValuePipe&#45;&gt;ToolModule</title>
<path fill="none" stroke="#000000" d="M1262,-122.1061C1262,-141.3391 1262,-169 1262,-169 1262,-169 854.3698,-169 854.3698,-169"/>
<polygon fill="#000000" stroke="#000000" points="854.3698,-165.5001 844.3698,-169 854.3697,-172.5001 854.3698,-165.5001"/>
</g>
<!-- PageNotFoundComponent -->
<g id="node4" class="node">
<title>PageNotFoundComponent</title>
<polygon fill="#ffffb3" stroke="#000000" points="1195.8243,-122 1030.1757,-122 1030.1757,-86 1195.8243,-86 1195.8243,-122"/>
<text text-anchor="middle" x="1113" y="-99.8" font-family="Times,serif" font-size="14.00" fill="#000000">PageNotFoundComponent</text>
</g>
<!-- PageNotFoundComponent&#45;&gt;ToolModule -->
<g id="edge4" class="edge">
<title>PageNotFoundComponent&#45;&gt;ToolModule</title>
<path fill="none" stroke="#000000" d="M1113,-122.0225C1113,-139.3734 1113,-163 1113,-163 1113,-163 854.0547,-163 854.0547,-163"/>
<polygon fill="#000000" stroke="#000000" points="854.0547,-159.5001 844.0547,-163 854.0547,-166.5001 854.0547,-159.5001"/>
</g>
<!-- PrivateComponent -->
<g id="node5" class="node">
<title>PrivateComponent</title>
<polygon fill="#ffffb3" stroke="#000000" points="1012.486,-122 891.514,-122 891.514,-86 1012.486,-86 1012.486,-122"/>
<text text-anchor="middle" x="952" y="-99.8" font-family="Times,serif" font-size="14.00" fill="#000000">PrivateComponent</text>
</g>
<!-- PrivateComponent&#45;&gt;ToolModule -->
<g id="edge5" class="edge">
<title>PrivateComponent&#45;&gt;ToolModule</title>
<path fill="none" stroke="#000000" d="M952,-122.2396C952,-137.5706 952,-157 952,-157 952,-157 854.2705,-157 854.2705,-157"/>
<polygon fill="#000000" stroke="#000000" points="854.2706,-153.5001 844.2705,-157 854.2705,-160.5001 854.2706,-153.5001"/>
</g>
<!-- SourceBadgeClassPipe -->
<g id="node6" class="node">
<title>SourceBadgeClassPipe</title>
<polygon fill="#ffffb3" stroke="#000000" points="873.8571,-122 728.1429,-122 728.1429,-86 873.8571,-86 873.8571,-122"/>
<text text-anchor="middle" x="801" y="-99.8" font-family="Times,serif" font-size="14.00" fill="#000000">SourceBadgeClassPipe</text>
</g>
<!-- SourceBadgeClassPipe&#45;&gt;ToolModule -->
<g id="edge6" class="edge">
<title>SourceBadgeClassPipe&#45;&gt;ToolModule</title>
<path fill="none" stroke="#000000" d="M801,-122.1061C801,-122.1061 801,-140.991 801,-140.991"/>
<polygon fill="#000000" stroke="#000000" points="797.5001,-140.9909 801,-150.991 804.5001,-140.991 797.5001,-140.9909"/>
</g>
<!-- ToolComponent -->
<g id="node7" class="node">
<title>ToolComponent</title>
<polygon fill="#ffffb3" stroke="#000000" points="709.7758,-122 602.2242,-122 602.2242,-86 709.7758,-86 709.7758,-122"/>
<text text-anchor="middle" x="656" y="-99.8" font-family="Times,serif" font-size="14.00" fill="#000000">ToolComponent</text>
</g>
<!-- ToolComponent&#45;&gt;ToolModule -->
<g id="edge7" class="edge">
<title>ToolComponent&#45;&gt;ToolModule</title>
<path fill="none" stroke="#000000" d="M656,-122.2396C656,-137.5706 656,-157 656,-157 656,-157 747.8878,-157 747.8878,-157"/>
<polygon fill="#000000" stroke="#000000" points="747.8878,-160.5001 757.8878,-157 747.8878,-153.5001 747.8878,-160.5001"/>
</g>
<!-- ToolTableComponent -->
<g id="node8" class="node">
<title>ToolTableComponent</title>
<polygon fill="#ffffb3" stroke="#000000" points="583.6484,-122 444.3516,-122 444.3516,-86 583.6484,-86 583.6484,-122"/>
<text text-anchor="middle" x="514" y="-99.8" font-family="Times,serif" font-size="14.00" fill="#000000">ToolTableComponent</text>
</g>
<!-- ToolTableComponent&#45;&gt;ToolModule -->
<g id="edge8" class="edge">
<title>ToolTableComponent&#45;&gt;ToolModule</title>
<path fill="none" stroke="#000000" d="M514,-122.0225C514,-139.3734 514,-163 514,-163 514,-163 747.7225,-163 747.7225,-163"/>
<polygon fill="#000000" stroke="#000000" points="747.7225,-166.5001 757.7225,-163 747.7224,-159.5001 747.7225,-166.5001"/>
</g>
<!-- ToolComponent  -->
<g id="node12" class="node">
<title>ToolComponent </title>
<polygon fill="#80b1d3" stroke="#000000" points="856.7759,-252 745.2241,-252 745.2241,-216 856.7759,-216 856.7759,-252"/>
<text text-anchor="middle" x="801" y="-229.8" font-family="Times,serif" font-size="14.00" fill="#000000">ToolComponent </text>
</g>
<!-- ToolModule&#45;&gt;ToolComponent  -->
<g id="edge11" class="edge">
<title>ToolModule&#45;&gt;ToolComponent </title>
<path fill="none" stroke="#000000" stroke-dasharray="1,5" d="M801,-187.1061C801,-187.1061 801,-205.991 801,-205.991"/>
<polygon fill="#000000" stroke="#000000" points="797.5001,-205.9909 801,-215.991 804.5001,-205.991 797.5001,-205.9909"/>
</g>
<!-- MaterialModule -->
<g id="node10" class="node">
<title>MaterialModule</title>
<polygon fill="#8dd3c7" stroke="#000000" points="420.4706,-122 417.4706,-126 396.4706,-126 393.4706,-122 313.5294,-122 313.5294,-86 420.4706,-86 420.4706,-122"/>
<text text-anchor="middle" x="367" y="-99.8" font-family="Times,serif" font-size="14.00" fill="#000000">MaterialModule</text>
</g>
<!-- MaterialModule&#45;&gt;ToolModule -->
<g id="edge9" class="edge">
<title>MaterialModule&#45;&gt;ToolModule</title>
<path fill="none" stroke="#000000" d="M367,-122.1061C367,-141.3391 367,-169 367,-169 367,-169 747.7997,-169 747.7997,-169"/>
<polygon fill="#000000" stroke="#000000" points="747.7998,-172.5001 757.7997,-169 747.7997,-165.5001 747.7998,-172.5001"/>
</g>
<!-- ToolRoutingModule -->
<g id="node11" class="node">
<title>ToolRoutingModule</title>
<polygon fill="#8dd3c7" stroke="#000000" points="295.6108,-122 292.6108,-126 271.6108,-126 268.6108,-122 164.3892,-122 164.3892,-86 295.6108,-86 295.6108,-122"/>
<text text-anchor="middle" x="230" y="-99.8" font-family="Times,serif" font-size="14.00" fill="#000000">ToolRoutingModule</text>
</g>
<!-- ToolRoutingModule&#45;&gt;ToolModule -->
<g id="edge10" class="edge">
<title>ToolRoutingModule&#45;&gt;ToolModule</title>
<path fill="none" stroke="#000000" d="M230,-122.2843C230,-143.3211 230,-175 230,-175 230,-175 747.6135,-175 747.6135,-175"/>
<polygon fill="#000000" stroke="#000000" points="747.6136,-178.5001 757.6135,-175 747.6135,-171.5001 747.6136,-178.5001"/>
</g>
<!-- ToolService -->
<g id="node13" class="node">
<title>ToolService</title>
<ellipse fill="#fdb462" stroke="#000000" cx="82" cy="-104" rx="58.4648" ry="18"/>
<text text-anchor="middle" x="82" y="-99.8" font-family="Times,serif" font-size="14.00" fill="#000000">ToolService</text>
</g>
<!-- ToolService&#45;&gt;ToolModule -->
<g id="edge12" class="edge">
<title>ToolService&#45;&gt;ToolModule</title>
<path fill="none" stroke="#000000" d="M82,-122.2479C82,-145.0179 82,-181 82,-181 82,-181 747.9099,-181 747.9099,-181"/>
<polygon fill="#000000" stroke="#000000" points="747.9099,-184.5001 757.9099,-181 747.9098,-177.5001 747.9099,-184.5001"/>
</g>
</g>
</svg>
