<?xml version="1.0" encoding="UTF-8" standalone="no"?>
<!DOCTYPE svg PUBLIC "-//W3C//DTD SVG 1.1//EN"
 "http://www.w3.org/Graphics/SVG/1.1/DTD/svg11.dtd">
<!-- Generated by graphviz version 2.40.1 (20161225.0304)
 -->
<!-- Title: dependencies Pages: 1 -->
<svg width="1797pt" height="284pt"
 viewBox="0.00 0.00 1797.00 284.00" xmlns="http://www.w3.org/2000/svg" xmlns:xlink="http://www.w3.org/1999/xlink">
<g id="graph0" class="graph" transform="scale(1 1) rotate(0) translate(4 280)">
<title>dependencies</title>
<polygon fill="#ffffff" stroke="transparent" points="-4,4 -4,-280 1793,-280 1793,4 -4,4"/>
<text text-anchor="start" x="873.5091" y="-42.4" font-family="sans-serif" font-weight="bold" font-size="14.00" fill="#000000">Legend</text>
<polygon fill="#ffffb3" stroke="transparent" points="660.5,-10 660.5,-30 680.5,-30 680.5,-10 660.5,-10"/>
<text text-anchor="start" x="684.129" y="-15.4" font-family="sans-serif" font-size="14.00" fill="#000000"> &#160;Declarations</text>
<polygon fill="#8dd3c7" stroke="transparent" points="773.5,-10 773.5,-30 793.5,-30 793.5,-10 773.5,-10"/>
<text text-anchor="start" x="797.2251" y="-15.4" font-family="sans-serif" font-size="14.00" fill="#000000"> &#160;Module</text>
<polygon fill="#80b1d3" stroke="transparent" points="859.5,-10 859.5,-30 879.5,-30 879.5,-10 859.5,-10"/>
<text text-anchor="start" x="883.2812" y="-15.4" font-family="sans-serif" font-size="14.00" fill="#000000"> &#160;Bootstrap</text>
<polygon fill="#fdb462" stroke="transparent" points="956.5,-10 956.5,-30 976.5,-30 976.5,-10 956.5,-10"/>
<text text-anchor="start" x="980.1732" y="-15.4" font-family="sans-serif" font-size="14.00" fill="#000000"> &#160;Providers</text>
<polygon fill="#fb8072" stroke="transparent" points="1052.5,-10 1052.5,-30 1072.5,-30 1072.5,-10 1052.5,-10"/>
<text text-anchor="start" x="1076.2258" y="-15.4" font-family="sans-serif" font-size="14.00" fill="#000000"> &#160;Exports</text>
<g id="clust1" class="cluster">
<title>cluster_AppModule</title>
<polygon fill="none" stroke="#000000" stroke-dasharray="1,5" points="8,-70 8,-268 1781,-268 1781,-70 8,-70"/>
</g>
<g id="clust2" class="cluster">
<title>cluster_AppModule_declarations</title>
<polygon fill="none" stroke="#000000" points="467,-78 467,-130 1773,-130 1773,-78 467,-78"/>
</g>
<g id="clust12" class="cluster">
<title>cluster_AppModule_imports</title>
<polygon fill="none" stroke="#000000" points="190,-78 190,-130 459,-130 459,-78 190,-78"/>
</g>
<g id="clust14" class="cluster">
<title>cluster_AppModule_bootstrap</title>
<polygon fill="none" stroke="#000000" points="857,-208 857,-260 981,-260 981,-208 857,-208"/>
</g>
<g id="clust15" class="cluster">
<title>cluster_AppModule_providers</title>
<polygon fill="none" stroke="#000000" points="16,-78 16,-130 182,-130 182,-78 16,-78"/>
</g>
<!-- AboutComponent -->
<g id="node1" class="node">
<title>AboutComponent</title>
<polygon fill="#ffffb3" stroke="#000000" points="1765.3301,-122 1648.6699,-122 1648.6699,-86 1765.3301,-86 1765.3301,-122"/>
<text text-anchor="middle" x="1707" y="-99.8" font-family="Times,serif" font-size="14.00" fill="#000000">AboutComponent</text>
</g>
<!-- AppModule -->
<g id="node10" class="node">
<title>AppModule</title>
<polygon fill="#8dd3c7" stroke="#000000" points="960.6571,-187 957.6571,-191 936.6571,-191 933.6571,-187 877.3429,-187 877.3429,-151 960.6571,-151 960.6571,-187"/>
<text text-anchor="middle" x="919" y="-164.8" font-family="Times,serif" font-size="14.00" fill="#000000">AppModule</text>
</g>
<!-- AboutComponent&#45;&gt;AppModule -->
<g id="edge1" class="edge">
<title>AboutComponent&#45;&gt;AppModule</title>
<path fill="none" stroke="#000000" d="M1707,-122.2479C1707,-145.0179 1707,-181 1707,-181 1707,-181 970.8099,-181 970.8099,-181"/>
<polygon fill="#000000" stroke="#000000" points="970.81,-177.5001 960.8099,-181 970.8099,-184.5001 970.81,-177.5001"/>
</g>
<!-- AppComponent -->
<g id="node2" class="node">
<title>AppComponent</title>
<polygon fill="#ffffb3" stroke="#000000" points="1630.9399,-122 1525.0601,-122 1525.0601,-86 1630.9399,-86 1630.9399,-122"/>
<text text-anchor="middle" x="1578" y="-99.8" font-family="Times,serif" font-size="14.00" fill="#000000">AppComponent</text>
</g>
<!-- AppComponent&#45;&gt;AppModule -->
<g id="edge2" class="edge">
<title>AppComponent&#45;&gt;AppModule</title>
<path fill="none" stroke="#000000" d="M1578,-122.2843C1578,-143.3211 1578,-175 1578,-175 1578,-175 970.7233,-175 970.7233,-175"/>
<polygon fill="#000000" stroke="#000000" points="970.7234,-171.5001 960.7233,-175 970.7233,-178.5001 970.7234,-171.5001"/>
</g>
<!-- DashboardComponent -->
<g id="node3" class="node">
<title>DashboardComponent</title>
<polygon fill="#ffffb3" stroke="#000000" points="1506.9734,-122 1365.0266,-122 1365.0266,-86 1506.9734,-86 1506.9734,-122"/>
<text text-anchor="middle" x="1436" y="-99.8" font-family="Times,serif" font-size="14.00" fill="#000000">DashboardComponent</text>
</g>
<!-- DashboardComponent&#45;&gt;AppModule -->
<g id="edge3" class="edge">
<title>DashboardComponent&#45;&gt;AppModule</title>
<path fill="none" stroke="#000000" d="M1436,-122.1061C1436,-141.3391 1436,-169 1436,-169 1436,-169 970.8703,-169 970.8703,-169"/>
<polygon fill="#000000" stroke="#000000" points="970.8704,-165.5001 960.8703,-169 970.8703,-172.5001 970.8704,-165.5001"/>
</g>
<!-- DocsComponent -->
<g id="node4" class="node">
<title>DocsComponent</title>
<polygon fill="#ffffb3" stroke="#000000" points="1347.0982,-122 1236.9018,-122 1236.9018,-86 1347.0982,-86 1347.0982,-122"/>
<text text-anchor="middle" x="1292" y="-99.8" font-family="Times,serif" font-size="14.00" fill="#000000">DocsComponent</text>
</g>
<!-- DocsComponent&#45;&gt;AppModule -->
<g id="edge4" class="edge">
<title>DocsComponent&#45;&gt;AppModule</title>
<path fill="none" stroke="#000000" d="M1292,-122.0225C1292,-139.3734 1292,-163 1292,-163 1292,-163 970.7021,-163 970.7021,-163"/>
<polygon fill="#000000" stroke="#000000" points="970.7021,-159.5001 960.7021,-163 970.7021,-166.5001 970.7021,-159.5001"/>
</g>
<!-- FooterComponent -->
<g id="node5" class="node">
<title>FooterComponent</title>
<polygon fill="#ffffb3" stroke="#000000" points="1218.8809,-122 1101.1191,-122 1101.1191,-86 1218.8809,-86 1218.8809,-122"/>
<text text-anchor="middle" x="1160" y="-99.8" font-family="Times,serif" font-size="14.00" fill="#000000">FooterComponent</text>
</g>
<!-- FooterComponent&#45;&gt;AppModule -->
<g id="edge5" class="edge">
<title>FooterComponent&#45;&gt;AppModule</title>
<path fill="none" stroke="#000000" d="M1160,-122.2396C1160,-137.5706 1160,-157 1160,-157 1160,-157 970.7039,-157 970.7039,-157"/>
<polygon fill="#000000" stroke="#000000" points="970.7039,-153.5001 960.7039,-157 970.7038,-160.5001 970.7039,-153.5001"/>
</g>
<!-- PageNotFoundComponent -->
<g id="node6" class="node">
<title>PageNotFoundComponent</title>
<polygon fill="#ffffb3" stroke="#000000" points="1082.8243,-122 917.1757,-122 917.1757,-86 1082.8243,-86 1082.8243,-122"/>
<text text-anchor="middle" x="1000" y="-99.8" font-family="Times,serif" font-size="14.00" fill="#000000">PageNotFoundComponent</text>
</g>
<!-- PageNotFoundComponent&#45;&gt;AppModule -->
<g id="edge6" class="edge">
<title>PageNotFoundComponent&#45;&gt;AppModule</title>
<path fill="none" stroke="#000000" d="M939.0831,-122.1061C939.0831,-122.1061 939.0831,-140.991 939.0831,-140.991"/>
<polygon fill="#000000" stroke="#000000" points="935.5832,-140.9909 939.0831,-150.991 942.5832,-140.991 935.5832,-140.9909"/>
</g>
<!-- PrivateComponent -->
<g id="node7" class="node">
<title>PrivateComponent</title>
<polygon fill="#ffffb3" stroke="#000000" points="899.486,-122 778.514,-122 778.514,-86 899.486,-86 899.486,-122"/>
<text text-anchor="middle" x="839" y="-99.8" font-family="Times,serif" font-size="14.00" fill="#000000">PrivateComponent</text>
</g>
<!-- PrivateComponent&#45;&gt;AppModule -->
<g id="edge7" class="edge">
<title>PrivateComponent&#45;&gt;AppModule</title>
<path fill="none" stroke="#000000" d="M888.3324,-122.1061C888.3324,-122.1061 888.3324,-140.991 888.3324,-140.991"/>
<polygon fill="#000000" stroke="#000000" points="884.8325,-140.9909 888.3324,-150.991 891.8325,-140.991 884.8325,-140.9909"/>
</g>
<!-- StatisticsComponent -->
<g id="node8" class="node">
<title>StatisticsComponent</title>
<polygon fill="#ffffb3" stroke="#000000" points="760.8864,-122 629.1136,-122 629.1136,-86 760.8864,-86 760.8864,-122"/>
<text text-anchor="middle" x="695" y="-99.8" font-family="Times,serif" font-size="14.00" fill="#000000">StatisticsComponent</text>
</g>
<!-- StatisticsComponent&#45;&gt;AppModule -->
<g id="edge8" class="edge">
<title>StatisticsComponent&#45;&gt;AppModule</title>
<path fill="none" stroke="#000000" d="M695,-122.2396C695,-137.5706 695,-157 695,-157 695,-157 867.1301,-157 867.1301,-157"/>
<polygon fill="#000000" stroke="#000000" points="867.1301,-160.5001 877.1301,-157 867.13,-153.5001 867.1301,-160.5001"/>
</g>
<!-- TopMenuComponent -->
<g id="node9" class="node">
<title>TopMenuComponent</title>
<polygon fill="#ffffb3" stroke="#000000" points="611.045,-122 474.955,-122 474.955,-86 611.045,-86 611.045,-122"/>
<text text-anchor="middle" x="543" y="-99.8" font-family="Times,serif" font-size="14.00" fill="#000000">TopMenuComponent</text>
</g>
<!-- TopMenuComponent&#45;&gt;AppModule -->
<g id="edge9" class="edge">
<title>TopMenuComponent&#45;&gt;AppModule</title>
<path fill="none" stroke="#000000" d="M543,-122.0225C543,-139.3734 543,-163 543,-163 543,-163 867.3248,-163 867.3248,-163"/>
<polygon fill="#000000" stroke="#000000" points="867.3248,-166.5001 877.3248,-163 867.3248,-159.5001 867.3248,-166.5001"/>
</g>
<!-- AppComponent  -->
<g id="node13" class="node">
<title>AppComponent </title>
<polygon fill="#80b1d3" stroke="#000000" points="973.439,-252 864.561,-252 864.561,-216 973.439,-216 973.439,-252"/>
<text text-anchor="middle" x="919" y="-229.8" font-family="Times,serif" font-size="14.00" fill="#000000">AppComponent </text>
</g>
<!-- AppModule&#45;&gt;AppComponent  -->
<g id="edge12" class="edge">
<title>AppModule&#45;&gt;AppComponent </title>
<path fill="none" stroke="#000000" stroke-dasharray="1,5" d="M919,-187.1061C919,-187.1061 919,-205.991 919,-205.991"/>
<polygon fill="#000000" stroke="#000000" points="915.5001,-205.9909 919,-215.991 922.5001,-205.991 915.5001,-205.9909"/>
</g>
<!-- AppRoutingModule -->
<g id="node11" class="node">
<title>AppRoutingModule</title>
<polygon fill="#8dd3c7" stroke="#000000" points="451.2744,-122 448.2744,-126 427.2744,-126 424.2744,-122 322.7256,-122 322.7256,-86 451.2744,-86 451.2744,-122"/>
<text text-anchor="middle" x="387" y="-99.8" font-family="Times,serif" font-size="14.00" fill="#000000">AppRoutingModule</text>
</g>
<!-- AppRoutingModule&#45;&gt;AppModule -->
<g id="edge10" class="edge">
<title>AppRoutingModule&#45;&gt;AppModule</title>
<path fill="none" stroke="#000000" d="M387,-122.1061C387,-141.3391 387,-169 387,-169 387,-169 867.2549,-169 867.2549,-169"/>
<polygon fill="#000000" stroke="#000000" points="867.2549,-172.5001 877.2549,-169 867.2548,-165.5001 867.2549,-172.5001"/>
</g>
<!-- MaterialModule -->
<g id="node12" class="node">
<title>MaterialModule</title>
<polygon fill="#8dd3c7" stroke="#000000" points="304.4706,-122 301.4706,-126 280.4706,-126 277.4706,-122 197.5294,-122 197.5294,-86 304.4706,-86 304.4706,-122"/>
<text text-anchor="middle" x="251" y="-99.8" font-family="Times,serif" font-size="14.00" fill="#000000">MaterialModule</text>
</g>
<!-- MaterialModule&#45;&gt;AppModule -->
<g id="edge11" class="edge">
<title>MaterialModule&#45;&gt;AppModule</title>
<path fill="none" stroke="#000000" d="M251,-122.2843C251,-143.3211 251,-175 251,-175 251,-175 867.2136,-175 867.2136,-175"/>
<polygon fill="#000000" stroke="#000000" points="867.2136,-178.5001 877.2136,-175 867.2136,-171.5001 867.2136,-178.5001"/>
</g>
<!-- StatisticsService -->
<g id="node14" class="node">
<title>StatisticsService</title>
<ellipse fill="#fdb462" stroke="#000000" cx="99" cy="-104" rx="74.7265" ry="18"/>
<text text-anchor="middle" x="99" y="-99.8" font-family="Times,serif" font-size="14.00" fill="#000000">StatisticsService</text>
</g>
<!-- StatisticsService&#45;&gt;AppModule -->
<g id="edge13" class="edge">
<title>StatisticsService&#45;&gt;AppModule</title>
<path fill="none" stroke="#000000" d="M99,-122.2479C99,-145.0179 99,-181 99,-181 99,-181 867.2087,-181 867.2087,-181"/>
<polygon fill="#000000" stroke="#000000" points="867.2088,-184.5001 877.2087,-181 867.2087,-177.5001 867.2088,-184.5001"/>
</g>
</g>
</svg>
