<?xml version="1.0" encoding="UTF-8" standalone="no"?>
<!DOCTYPE svg PUBLIC "-//W3C//DTD SVG 1.1//EN"
 "http://www.w3.org/Graphics/SVG/1.1/DTD/svg11.dtd">
<!-- Generated by graphviz version 2.40.1 (20161225.0304)
 -->
<!-- Title: dependencies Pages: 1 -->
<svg width="1905pt" height="284pt"
 viewBox="0.00 0.00 1905.00 284.00" xmlns="http://www.w3.org/2000/svg" xmlns:xlink="http://www.w3.org/1999/xlink">
<g id="graph0" class="graph" transform="scale(1 1) rotate(0) translate(4 280)">
<title>dependencies</title>
<polygon fill="#ffffff" stroke="transparent" points="-4,4 -4,-280 1901,-280 1901,4 -4,4"/>
<text text-anchor="start" x="927.5091" y="-42.4" font-family="sans-serif" font-weight="bold" font-size="14.00" fill="#000000">Legend</text>
<polygon fill="#ffffb3" stroke="transparent" points="714.5,-10 714.5,-30 734.5,-30 734.5,-10 714.5,-10"/>
<text text-anchor="start" x="738.129" y="-15.4" font-family="sans-serif" font-size="14.00" fill="#000000"> &#160;Declarations</text>
<polygon fill="#8dd3c7" stroke="transparent" points="827.5,-10 827.5,-30 847.5,-30 847.5,-10 827.5,-10"/>
<text text-anchor="start" x="851.2251" y="-15.4" font-family="sans-serif" font-size="14.00" fill="#000000"> &#160;Module</text>
<polygon fill="#80b1d3" stroke="transparent" points="913.5,-10 913.5,-30 933.5,-30 933.5,-10 913.5,-10"/>
<text text-anchor="start" x="937.2812" y="-15.4" font-family="sans-serif" font-size="14.00" fill="#000000"> &#160;Bootstrap</text>
<polygon fill="#fdb462" stroke="transparent" points="1010.5,-10 1010.5,-30 1030.5,-30 1030.5,-10 1010.5,-10"/>
<text text-anchor="start" x="1034.1732" y="-15.4" font-family="sans-serif" font-size="14.00" fill="#000000"> &#160;Providers</text>
<polygon fill="#fb8072" stroke="transparent" points="1106.5,-10 1106.5,-30 1126.5,-30 1126.5,-10 1106.5,-10"/>
<text text-anchor="start" x="1130.2258" y="-15.4" font-family="sans-serif" font-size="14.00" fill="#000000"> &#160;Exports</text>
<g id="clust1" class="cluster">
<title>cluster_AppModule</title>
<polygon fill="none" stroke="#000000" stroke-dasharray="1,5" points="8,-70 8,-268 1889,-268 1889,-70 8,-70"/>
</g>
<g id="clust2" class="cluster">
<title>cluster_AppModule_declarations</title>
<polygon fill="none" stroke="#000000" points="703,-78 703,-130 1881,-130 1881,-78 703,-78"/>
</g>
<g id="clust11" class="cluster">
<title>cluster_AppModule_imports</title>
<polygon fill="none" stroke="#000000" points="190,-78 190,-130 695,-130 695,-78 190,-78"/>
</g>
<g id="clust13" class="cluster">
<title>cluster_AppModule_bootstrap</title>
<polygon fill="none" stroke="#000000" points="869,-208 869,-260 993,-260 993,-208 869,-208"/>
</g>
<g id="clust14" class="cluster">
<title>cluster_AppModule_providers</title>
<polygon fill="none" stroke="#000000" points="16,-78 16,-130 182,-130 182,-78 16,-78"/>
</g>
<!-- AboutComponent -->
<g id="node1" class="node">
<title>AboutComponent</title>
<polygon fill="#ffffb3" stroke="#000000" points="1873.3301,-122 1756.6699,-122 1756.6699,-86 1873.3301,-86 1873.3301,-122"/>
<text text-anchor="middle" x="1815" y="-99.8" font-family="Times,serif" font-size="14.00" fill="#000000">AboutComponent</text>
</g>
<!-- AppModule -->
<g id="node9" class="node">
<title>AppModule</title>
<polygon fill="#8dd3c7" stroke="#000000" points="972.6571,-187 969.6571,-191 948.6571,-191 945.6571,-187 889.3429,-187 889.3429,-151 972.6571,-151 972.6571,-187"/>
<text text-anchor="middle" x="931" y="-164.8" font-family="Times,serif" font-size="14.00" fill="#000000">AppModule</text>
</g>
<!-- AboutComponent&#45;&gt;AppModule -->
<g id="edge1" class="edge">
<title>AboutComponent&#45;&gt;AppModule</title>
<path fill="none" stroke="#000000" d="M1815,-122.0908C1815,-145.1328 1815,-182 1815,-182 1815,-182 982.7465,-182 982.7465,-182"/>
<polygon fill="#000000" stroke="#000000" points="982.7465,-178.5001 972.7465,-182 982.7465,-185.5001 982.7465,-178.5001"/>
</g>
<!-- AppComponent -->
<g id="node2" class="node">
<title>AppComponent</title>
<polygon fill="#ffffb3" stroke="#000000" points="1738.9399,-122 1633.0601,-122 1633.0601,-86 1738.9399,-86 1738.9399,-122"/>
<text text-anchor="middle" x="1686" y="-99.8" font-family="Times,serif" font-size="14.00" fill="#000000">AppComponent</text>
</g>
<!-- AppComponent&#45;&gt;AppModule -->
<g id="edge2" class="edge">
<title>AppComponent&#45;&gt;AppModule</title>
<path fill="none" stroke="#000000" d="M1686,-122.0449C1686,-143.6623 1686,-177 1686,-177 1686,-177 982.6675,-177 982.6675,-177"/>
<polygon fill="#000000" stroke="#000000" points="982.6675,-173.5001 972.6675,-177 982.6675,-180.5001 982.6675,-173.5001"/>
</g>
<!-- DashboardComponent -->
<g id="node3" class="node">
<title>DashboardComponent</title>
<polygon fill="#ffffb3" stroke="#000000" points="1614.9734,-122 1473.0266,-122 1473.0266,-86 1614.9734,-86 1614.9734,-122"/>
<text text-anchor="middle" x="1544" y="-99.8" font-family="Times,serif" font-size="14.00" fill="#000000">DashboardComponent</text>
</g>
<!-- DashboardComponent&#45;&gt;AppModule -->
<g id="edge3" class="edge">
<title>DashboardComponent&#45;&gt;AppModule</title>
<path fill="none" stroke="#000000" d="M1544,-122.2228C1544,-142.3652 1544,-172 1544,-172 1544,-172 983.134,-172 983.134,-172"/>
<polygon fill="#000000" stroke="#000000" points="983.134,-168.5001 973.134,-172 983.1339,-175.5001 983.134,-168.5001"/>
</g>
<!-- FooterComponent -->
<g id="node4" class="node">
<title>FooterComponent</title>
<polygon fill="#ffffb3" stroke="#000000" points="1454.8809,-122 1337.1191,-122 1337.1191,-86 1454.8809,-86 1454.8809,-122"/>
<text text-anchor="middle" x="1396" y="-99.8" font-family="Times,serif" font-size="14.00" fill="#000000">FooterComponent</text>
</g>
<!-- FooterComponent&#45;&gt;AppModule -->
<g id="edge4" class="edge">
<title>FooterComponent&#45;&gt;AppModule</title>
<path fill="none" stroke="#000000" d="M1396,-122.2222C1396,-140.8285 1396,-167 1396,-167 1396,-167 982.6749,-167 982.6749,-167"/>
<polygon fill="#000000" stroke="#000000" points="982.6749,-163.5001 972.6749,-167 982.6748,-170.5001 982.6749,-163.5001"/>
</g>
<!-- PageNotFoundComponent -->
<g id="node5" class="node">
<title>PageNotFoundComponent</title>
<polygon fill="#ffffb3" stroke="#000000" points="1318.8243,-122 1153.1757,-122 1153.1757,-86 1318.8243,-86 1318.8243,-122"/>
<text text-anchor="middle" x="1236" y="-99.8" font-family="Times,serif" font-size="14.00" fill="#000000">PageNotFoundComponent</text>
</g>
<!-- PageNotFoundComponent&#45;&gt;AppModule -->
<g id="edge5" class="edge">
<title>PageNotFoundComponent&#45;&gt;AppModule</title>
<path fill="none" stroke="#000000" d="M1236,-122.0336C1236,-139.0597 1236,-162 1236,-162 1236,-162 982.7694,-162 982.7694,-162"/>
<polygon fill="#000000" stroke="#000000" points="982.7695,-158.5001 972.7694,-162 982.7694,-165.5001 982.7695,-158.5001"/>
</g>
<!-- PrivateComponent -->
<g id="node6" class="node">
<title>PrivateComponent</title>
<polygon fill="#ffffb3" stroke="#000000" points="1135.486,-122 1014.514,-122 1014.514,-86 1135.486,-86 1135.486,-122"/>
<text text-anchor="middle" x="1075" y="-99.8" font-family="Times,serif" font-size="14.00" fill="#000000">PrivateComponent</text>
</g>
<!-- PrivateComponent&#45;&gt;AppModule -->
<g id="edge6" class="edge">
<title>PrivateComponent&#45;&gt;AppModule</title>
<path fill="none" stroke="#000000" d="M1075,-122.2396C1075,-137.5706 1075,-157 1075,-157 1075,-157 983.0379,-157 983.0379,-157"/>
<polygon fill="#000000" stroke="#000000" points="983.0379,-153.5001 973.0379,-157 983.0378,-160.5001 983.0379,-153.5001"/>
</g>
<!-- StatisticsComponent -->
<g id="node7" class="node">
<title>StatisticsComponent</title>
<polygon fill="#ffffb3" stroke="#000000" points="996.8864,-122 865.1136,-122 865.1136,-86 996.8864,-86 996.8864,-122"/>
<text text-anchor="middle" x="931" y="-99.8" font-family="Times,serif" font-size="14.00" fill="#000000">StatisticsComponent</text>
</g>
<!-- StatisticsComponent&#45;&gt;AppModule -->
<g id="edge7" class="edge">
<title>StatisticsComponent&#45;&gt;AppModule</title>
<path fill="none" stroke="#000000" d="M931,-122.1061C931,-122.1061 931,-140.991 931,-140.991"/>
<polygon fill="#000000" stroke="#000000" points="927.5001,-140.9909 931,-150.991 934.5001,-140.991 927.5001,-140.9909"/>
</g>
<!-- TopMenuComponent -->
<g id="node8" class="node">
<title>TopMenuComponent</title>
<polygon fill="#ffffb3" stroke="#000000" points="847.045,-122 710.955,-122 710.955,-86 847.045,-86 847.045,-122"/>
<text text-anchor="middle" x="779" y="-99.8" font-family="Times,serif" font-size="14.00" fill="#000000">TopMenuComponent</text>
</g>
<!-- TopMenuComponent&#45;&gt;AppModule -->
<g id="edge8" class="edge">
<title>TopMenuComponent&#45;&gt;AppModule</title>
<path fill="none" stroke="#000000" d="M779,-122.2396C779,-137.5706 779,-157 779,-157 779,-157 879.063,-157 879.063,-157"/>
<polygon fill="#000000" stroke="#000000" points="879.063,-160.5001 889.063,-157 879.0629,-153.5001 879.063,-160.5001"/>
</g>
<!-- AppComponent  -->
<g id="node14" class="node">
<title>AppComponent </title>
<polygon fill="#80b1d3" stroke="#000000" points="985.439,-252 876.561,-252 876.561,-216 985.439,-216 985.439,-252"/>
<text text-anchor="middle" x="931" y="-229.8" font-family="Times,serif" font-size="14.00" fill="#000000">AppComponent </text>
</g>
<!-- AppModule&#45;&gt;AppComponent  -->
<g id="edge13" class="edge">
<title>AppModule&#45;&gt;AppComponent </title>
<path fill="none" stroke="#000000" stroke-dasharray="1,5" d="M931,-187.1061C931,-187.1061 931,-205.991 931,-205.991"/>
<polygon fill="#000000" stroke="#000000" points="927.5001,-205.9909 931,-215.991 934.5001,-205.991 927.5001,-205.9909"/>
</g>
<!-- AppRoutingModule -->
<g id="node10" class="node">
<title>AppRoutingModule</title>
<polygon fill="#8dd3c7" stroke="#000000" points="687.2744,-122 684.2744,-126 663.2744,-126 660.2744,-122 558.7256,-122 558.7256,-86 687.2744,-86 687.2744,-122"/>
<text text-anchor="middle" x="623" y="-99.8" font-family="Times,serif" font-size="14.00" fill="#000000">AppRoutingModule</text>
</g>
<!-- AppRoutingModule&#45;&gt;AppModule -->
<g id="edge9" class="edge">
<title>AppRoutingModule&#45;&gt;AppModule</title>
<path fill="none" stroke="#000000" d="M623,-122.0336C623,-139.0597 623,-162 623,-162 623,-162 879.1412,-162 879.1412,-162"/>
<polygon fill="#000000" stroke="#000000" points="879.1412,-165.5001 889.1412,-162 879.1412,-158.5001 879.1412,-165.5001"/>
</g>
<!-- MaterialModule -->
<g id="node11" class="node">
<title>MaterialModule</title>
<polygon fill="#8dd3c7" stroke="#000000" points="540.4706,-122 537.4706,-126 516.4706,-126 513.4706,-122 433.5294,-122 433.5294,-86 540.4706,-86 540.4706,-122"/>
<text text-anchor="middle" x="487" y="-99.8" font-family="Times,serif" font-size="14.00" fill="#000000">MaterialModule</text>
</g>
<!-- MaterialModule&#45;&gt;AppModule -->
<g id="edge10" class="edge">
<title>MaterialModule&#45;&gt;AppModule</title>
<path fill="none" stroke="#000000" d="M487,-122.2222C487,-140.8285 487,-167 487,-167 487,-167 879.2296,-167 879.2296,-167"/>
<polygon fill="#000000" stroke="#000000" points="879.2296,-170.5001 889.2296,-167 879.2295,-163.5001 879.2296,-170.5001"/>
</g>
<!-- ScientificModule -->
<g id="node12" class="node">
<title>ScientificModule</title>
<polygon fill="#8dd3c7" stroke="#000000" points="415.6994,-122 412.6994,-126 391.6994,-126 388.6994,-122 302.3006,-122 302.3006,-86 415.6994,-86 415.6994,-122"/>
<text text-anchor="middle" x="359" y="-99.8" font-family="Times,serif" font-size="14.00" fill="#000000">ScientificModule</text>
</g>
<!-- ScientificModule&#45;&gt;AppModule -->
<g id="edge11" class="edge">
<title>ScientificModule&#45;&gt;AppModule</title>
<path fill="none" stroke="#000000" d="M359,-122.2228C359,-142.3652 359,-172 359,-172 359,-172 878.9395,-172 878.9395,-172"/>
<polygon fill="#000000" stroke="#000000" points="878.9395,-175.5001 888.9395,-172 878.9394,-168.5001 878.9395,-175.5001"/>
</g>
<!-- ToolModule -->
<g id="node13" class="node">
<title>ToolModule</title>
<polygon fill="#8dd3c7" stroke="#000000" points="283.993,-122 280.993,-126 259.993,-126 256.993,-122 198.007,-122 198.007,-86 283.993,-86 283.993,-122"/>
<text text-anchor="middle" x="241" y="-99.8" font-family="Times,serif" font-size="14.00" fill="#000000">ToolModule</text>
</g>
<!-- ToolModule&#45;&gt;AppModule -->
<g id="edge12" class="edge">
<title>ToolModule&#45;&gt;AppModule</title>
<path fill="none" stroke="#000000" d="M241,-122.0449C241,-143.6623 241,-177 241,-177 241,-177 879.134,-177 879.134,-177"/>
<polygon fill="#000000" stroke="#000000" points="879.1341,-180.5001 889.134,-177 879.134,-173.5001 879.1341,-180.5001"/>
</g>
<!-- StatisticsService -->
<g id="node15" class="node">
<title>StatisticsService</title>
<ellipse fill="#fdb462" stroke="#000000" cx="99" cy="-104" rx="74.7265" ry="18"/>
<text text-anchor="middle" x="99" y="-99.8" font-family="Times,serif" font-size="14.00" fill="#000000">StatisticsService</text>
</g>
<!-- StatisticsService&#45;&gt;AppModule -->
<g id="edge14" class="edge">
<title>StatisticsService&#45;&gt;AppModule</title>
<path fill="none" stroke="#000000" d="M99,-122.0908C99,-145.1328 99,-182 99,-182 99,-182 879.1708,-182 879.1708,-182"/>
<polygon fill="#000000" stroke="#000000" points="879.1708,-185.5001 889.1708,-182 879.1708,-178.5001 879.1708,-185.5001"/>
</g>
</g>
</svg>
