<?xml version="1.0" encoding="UTF-8" standalone="no"?>
<!DOCTYPE svg PUBLIC "-//W3C//DTD SVG 1.1//EN"
 "http://www.w3.org/Graphics/SVG/1.1/DTD/svg11.dtd">
<!-- Generated by graphviz version 2.40.1 (20161225.0304)
 -->
<!-- Title: dependencies Pages: 1 -->
<svg width="4226pt" height="428pt"
 viewBox="0.00 0.00 4226.00 428.00" xmlns="http://www.w3.org/2000/svg" xmlns:xlink="http://www.w3.org/1999/xlink">
<g id="graph0" class="graph" transform="scale(1 1) rotate(0) translate(4 424)">
<title>dependencies</title>
<polygon fill="#ffffff" stroke="transparent" points="-4,4 -4,-424 4222,-424 4222,4 -4,4"/>
<text text-anchor="start" x="2088.0091" y="-42.4" font-family="sans-serif" font-weight="bold" font-size="14.00" fill="#000000">Legend</text>
<polygon fill="#ffffb3" stroke="transparent" points="1875,-10 1875,-30 1895,-30 1895,-10 1875,-10"/>
<text text-anchor="start" x="1898.629" y="-15.4" font-family="sans-serif" font-size="14.00" fill="#000000"> &#160;Declarations</text>
<polygon fill="#8dd3c7" stroke="transparent" points="1988,-10 1988,-30 2008,-30 2008,-10 1988,-10"/>
<text text-anchor="start" x="2011.7251" y="-15.4" font-family="sans-serif" font-size="14.00" fill="#000000"> &#160;Module</text>
<polygon fill="#80b1d3" stroke="transparent" points="2074,-10 2074,-30 2094,-30 2094,-10 2074,-10"/>
<text text-anchor="start" x="2097.7812" y="-15.4" font-family="sans-serif" font-size="14.00" fill="#000000"> &#160;Bootstrap</text>
<polygon fill="#fdb462" stroke="transparent" points="2171,-10 2171,-30 2191,-30 2191,-10 2171,-10"/>
<text text-anchor="start" x="2194.6732" y="-15.4" font-family="sans-serif" font-size="14.00" fill="#000000"> &#160;Providers</text>
<polygon fill="#fb8072" stroke="transparent" points="2267,-10 2267,-30 2287,-30 2287,-10 2267,-10"/>
<text text-anchor="start" x="2290.7258" y="-15.4" font-family="sans-serif" font-size="14.00" fill="#000000"> &#160;Exports</text>
<g id="clust1" class="cluster">
<title>cluster_AppModule</title>
<polygon fill="none" stroke="#000000" stroke-dasharray="1,5" points="1559,-146 1559,-412 2894,-412 2894,-146 1559,-146"/>
</g>
<g id="clust2" class="cluster">
<title>cluster_AppModule_declarations</title>
<polygon fill="none" stroke="#000000" points="2018,-154 2018,-206 2886,-206 2886,-154 2018,-154"/>
</g>
<g id="clust9" class="cluster">
<title>cluster_AppModule_imports</title>
<polygon fill="none" stroke="#000000" points="1741,-154 1741,-274 2010,-274 2010,-154 1741,-154"/>
</g>
<g id="clust11" class="cluster">
<title>cluster_AppModule_bootstrap</title>
<polygon fill="none" stroke="#000000" points="2022,-352 2022,-404 2146,-404 2146,-352 2022,-352"/>
</g>
<g id="clust12" class="cluster">
<title>cluster_AppModule_providers</title>
<polygon fill="none" stroke="#000000" points="1567,-222 1567,-274 1733,-274 1733,-222 1567,-222"/>
</g>
<g id="clust13" class="cluster">
<title>cluster_AppRoutingModule</title>
<polygon fill="none" stroke="#000000" stroke-dasharray="1,5" points="1726,-70 1726,-138 1900,-138 1900,-70 1726,-70"/>
</g>
<g id="clust18" class="cluster">
<title>cluster_AppRoutingModule_providers</title>
<polygon fill="none" stroke="#000000" points="1734,-78 1734,-130 1892,-130 1892,-78 1734,-78"/>
</g>
<g id="clust25" class="cluster">
<title>cluster_NgFancyLibModule</title>
<polygon fill="none" stroke="#000000" stroke-dasharray="1,5" points="4022,-70 4022,-282 4210,-282 4210,-70 4022,-70"/>
</g>
<g id="clust26" class="cluster">
<title>cluster_NgFancyLibModule_declarations</title>
<polygon fill="none" stroke="#000000" points="4032,-78 4032,-130 4200,-130 4200,-78 4032,-78"/>
</g>
<g id="clust29" class="cluster">
<title>cluster_NgFancyLibModule_exports</title>
<polygon fill="none" stroke="#000000" points="4030,-222 4030,-274 4202,-274 4202,-222 4030,-222"/>
</g>
<g id="clust32" class="cluster">
<title>cluster_ScientificModule</title>
<polygon fill="none" stroke="#000000" stroke-dasharray="1,5" points="8,-146 8,-214 1551,-214 1551,-146 8,-146"/>
</g>
<g id="clust33" class="cluster">
<title>cluster_ScientificModule_declarations</title>
<polygon fill="none" stroke="#000000" points="538,-154 538,-206 1543,-206 1543,-154 538,-154"/>
</g>
<g id="clust39" class="cluster">
<title>cluster_ScientificModule_imports</title>
<polygon fill="none" stroke="#000000" points="356,-154 356,-206 530,-206 530,-154 356,-154"/>
</g>
<g id="clust41" class="cluster">
<title>cluster_ScientificModule_bootstrap</title>
<polygon fill="none" stroke="#000000" points="194,-154 194,-206 348,-206 348,-154 194,-154"/>
</g>
<g id="clust42" class="cluster">
<title>cluster_ScientificModule_providers</title>
<polygon fill="none" stroke="#000000" points="16,-154 16,-206 186,-206 186,-154 16,-154"/>
</g>
<g id="clust49" class="cluster">
<title>cluster_ToolModule</title>
<polygon fill="none" stroke="#000000" stroke-dasharray="1,5" points="2902,-146 2902,-214 4014,-214 4014,-146 2902,-146"/>
</g>
<g id="clust50" class="cluster">
<title>cluster_ToolModule_declarations</title>
<polygon fill="none" stroke="#000000" points="3342,-154 3342,-206 4006,-206 4006,-154 3342,-154"/>
</g>
<g id="clust59" class="cluster">
<title>cluster_ToolModule_imports</title>
<polygon fill="none" stroke="#000000" points="3186,-154 3186,-206 3334,-206 3334,-154 3186,-154"/>
</g>
<g id="clust61" class="cluster">
<title>cluster_ToolModule_bootstrap</title>
<polygon fill="none" stroke="#000000" points="3050,-154 3050,-206 3178,-206 3178,-154 3050,-154"/>
</g>
<g id="clust62" class="cluster">
<title>cluster_ToolModule_providers</title>
<polygon fill="none" stroke="#000000" points="2910,-154 2910,-206 3042,-206 3042,-154 2910,-154"/>
</g>
<!-- AboutComponent -->
<g id="node1" class="node">
<title>AboutComponent</title>
<polygon fill="#ffffb3" stroke="#000000" points="2142.3301,-198 2025.6699,-198 2025.6699,-162 2142.3301,-162 2142.3301,-198"/>
<text text-anchor="middle" x="2084" y="-175.8" font-family="Times,serif" font-size="14.00" fill="#000000">AboutComponent</text>
</g>
<!-- AppModule -->
<g id="node7" class="node">
<title>AppModule</title>
<polygon fill="#8dd3c7" stroke="#000000" points="2125.6571,-331 2122.6571,-335 2101.6571,-335 2098.6571,-331 2042.3429,-331 2042.3429,-295 2125.6571,-295 2125.6571,-331"/>
<text text-anchor="middle" x="2084" y="-308.8" font-family="Times,serif" font-size="14.00" fill="#000000">AppModule</text>
</g>
<!-- AboutComponent&#45;&gt;AppModule -->
<g id="edge1" class="edge">
<title>AboutComponent&#45;&gt;AppModule</title>
<path fill="none" stroke="#000000" d="M2097.9427,-198.2142C2097.9427,-198.2142 2097.9427,-284.579 2097.9427,-284.579"/>
<polygon fill="#000000" stroke="#000000" points="2094.4428,-284.5789 2097.9427,-294.579 2101.4428,-284.579 2094.4428,-284.5789"/>
</g>
<!-- ToolModule -->
<g id="node11" class="node">
<title>ToolModule</title>
<polygon fill="#8dd3c7" stroke="#000000" points="2001.993,-266 1998.993,-270 1977.993,-270 1974.993,-266 1916.007,-266 1916.007,-230 2001.993,-230 2001.993,-266"/>
<text text-anchor="middle" x="1959" y="-243.8" font-family="Times,serif" font-size="14.00" fill="#000000">ToolModule</text>
</g>
<!-- AboutComponent&#45;&gt;ToolModule -->
<g id="edge25" class="edge">
<title>AboutComponent&#45;&gt;ToolModule</title>
<path fill="none" stroke="#000000" d="M2035.8512,-198.2396C2035.8512,-213.5706 2035.8512,-233 2035.8512,-233 2035.8512,-233 2012.3667,-233 2012.3667,-233"/>
<polygon fill="#000000" stroke="#000000" points="2012.3667,-229.5001 2002.3667,-233 2012.3666,-236.5001 2012.3667,-229.5001"/>
</g>
<!-- AppComponent -->
<g id="node2" class="node">
<title>AppComponent</title>
<polygon fill="#ffffb3" stroke="#000000" points="2587.9399,-198 2482.0601,-198 2482.0601,-162 2587.9399,-162 2587.9399,-198"/>
<text text-anchor="middle" x="2535" y="-175.8" font-family="Times,serif" font-size="14.00" fill="#000000">AppComponent</text>
</g>
<!-- AppComponent&#45;&gt;AppModule -->
<g id="edge2" class="edge">
<title>AppComponent&#45;&gt;AppModule</title>
<path fill="none" stroke="#000000" d="M2535,-198.2142C2535,-234.6396 2535,-313 2535,-313 2535,-313 2136.024,-313 2136.024,-313"/>
<polygon fill="#000000" stroke="#000000" points="2136.024,-309.5001 2126.024,-313 2136.024,-316.5001 2136.024,-309.5001"/>
</g>
<!-- FooterComponent -->
<g id="node3" class="node">
<title>FooterComponent</title>
<polygon fill="#ffffb3" stroke="#000000" points="2723.8809,-198 2606.1191,-198 2606.1191,-162 2723.8809,-162 2723.8809,-198"/>
<text text-anchor="middle" x="2665" y="-175.8" font-family="Times,serif" font-size="14.00" fill="#000000">FooterComponent</text>
</g>
<!-- FooterComponent&#45;&gt;AppModule -->
<g id="edge3" class="edge">
<title>FooterComponent&#45;&gt;AppModule</title>
<path fill="none" stroke="#000000" d="M2665,-198.1718C2665,-235.8494 2665,-319 2665,-319 2665,-319 2135.7841,-319 2135.7841,-319"/>
<polygon fill="#000000" stroke="#000000" points="2135.7841,-315.5001 2125.7841,-319 2135.7841,-322.5001 2135.7841,-315.5001"/>
</g>
<!-- PageNotFoundComponent -->
<g id="node4" class="node">
<title>PageNotFoundComponent</title>
<polygon fill="#ffffb3" stroke="#000000" points="2325.8243,-198 2160.1757,-198 2160.1757,-162 2325.8243,-162 2325.8243,-198"/>
<text text-anchor="middle" x="2243" y="-175.8" font-family="Times,serif" font-size="14.00" fill="#000000">PageNotFoundComponent</text>
</g>
<!-- PageNotFoundComponent&#45;&gt;AppModule -->
<g id="edge4" class="edge">
<title>PageNotFoundComponent&#45;&gt;AppModule</title>
<path fill="none" stroke="#000000" d="M2270.554,-198.1149C2270.554,-231.8699 2270.554,-301 2270.554,-301 2270.554,-301 2135.8664,-301 2135.8664,-301"/>
<polygon fill="#000000" stroke="#000000" points="2135.8664,-297.5001 2125.8664,-301 2135.8663,-304.5001 2135.8664,-297.5001"/>
</g>
<!-- PageNotFoundComponent&#45;&gt;ToolModule -->
<g id="edge28" class="edge">
<title>PageNotFoundComponent&#45;&gt;ToolModule</title>
<path fill="none" stroke="#000000" d="M2215.446,-198.027C2215.446,-214.3976 2215.446,-236 2215.446,-236 2215.446,-236 2012.2126,-236 2012.2126,-236"/>
<polygon fill="#000000" stroke="#000000" points="2012.2126,-232.5001 2002.2126,-236 2012.2125,-239.5001 2012.2126,-232.5001"/>
</g>
<!-- PrivateComponent -->
<g id="node5" class="node">
<title>PrivateComponent</title>
<polygon fill="#ffffb3" stroke="#000000" points="2464.486,-198 2343.514,-198 2343.514,-162 2464.486,-162 2464.486,-198"/>
<text text-anchor="middle" x="2404" y="-175.8" font-family="Times,serif" font-size="14.00" fill="#000000">PrivateComponent</text>
</g>
<!-- PrivateComponent&#45;&gt;AppModule -->
<g id="edge5" class="edge">
<title>PrivateComponent&#45;&gt;AppModule</title>
<path fill="none" stroke="#000000" d="M2424.1643,-198.196C2424.1643,-233.3126 2424.1643,-307 2424.1643,-307 2424.1643,-307 2135.7108,-307 2135.7108,-307"/>
<polygon fill="#000000" stroke="#000000" points="2135.7109,-303.5001 2125.7108,-307 2135.7108,-310.5001 2135.7109,-303.5001"/>
</g>
<!-- PrivateComponent&#45;&gt;ToolModule -->
<g id="edge29" class="edge">
<title>PrivateComponent&#45;&gt;ToolModule</title>
<path fill="none" stroke="#000000" d="M2383.8357,-198.0225C2383.8357,-215.3734 2383.8357,-239 2383.8357,-239 2383.8357,-239 2012.0735,-239 2012.0735,-239"/>
<polygon fill="#000000" stroke="#000000" points="2012.0735,-235.5001 2002.0735,-239 2012.0734,-242.5001 2012.0735,-235.5001"/>
</g>
<!-- TopMenuComponent -->
<g id="node6" class="node">
<title>TopMenuComponent</title>
<polygon fill="#ffffb3" stroke="#000000" points="2878.045,-198 2741.955,-198 2741.955,-162 2878.045,-162 2878.045,-198"/>
<text text-anchor="middle" x="2810" y="-175.8" font-family="Times,serif" font-size="14.00" fill="#000000">TopMenuComponent</text>
</g>
<!-- TopMenuComponent&#45;&gt;AppModule -->
<g id="edge6" class="edge">
<title>TopMenuComponent&#45;&gt;AppModule</title>
<path fill="none" stroke="#000000" d="M2810,-198.0712C2810,-236.941 2810,-325 2810,-325 2810,-325 2135.9053,-325 2135.9053,-325"/>
<polygon fill="#000000" stroke="#000000" points="2135.9053,-321.5001 2125.9053,-325 2135.9053,-328.5001 2135.9053,-321.5001"/>
</g>
<!-- AppComponent  -->
<g id="node12" class="node">
<title>AppComponent </title>
<polygon fill="#80b1d3" stroke="#000000" points="2138.439,-396 2029.561,-396 2029.561,-360 2138.439,-360 2138.439,-396"/>
<text text-anchor="middle" x="2084" y="-373.8" font-family="Times,serif" font-size="14.00" fill="#000000">AppComponent </text>
</g>
<!-- AppModule&#45;&gt;AppComponent  -->
<g id="edge11" class="edge">
<title>AppModule&#45;&gt;AppComponent </title>
<path fill="none" stroke="#000000" stroke-dasharray="1,5" d="M2084,-331.1061C2084,-331.1061 2084,-349.991 2084,-349.991"/>
<polygon fill="#000000" stroke="#000000" points="2080.5001,-349.9909 2084,-359.991 2087.5001,-349.991 2080.5001,-349.9909"/>
</g>
<!-- AppRoutingModule -->
<g id="node8" class="node">
<title>AppRoutingModule</title>
<polygon fill="#8dd3c7" stroke="#000000" points="1877.2744,-198 1874.2744,-202 1853.2744,-202 1850.2744,-198 1748.7256,-198 1748.7256,-162 1877.2744,-162 1877.2744,-198"/>
<text text-anchor="middle" x="1813" y="-175.8" font-family="Times,serif" font-size="14.00" fill="#000000">AppRoutingModule</text>
</g>
<!-- AppRoutingModule&#45;&gt;AppModule -->
<g id="edge7" class="edge">
<title>AppRoutingModule&#45;&gt;AppModule</title>
<path fill="none" stroke="#000000" d="M1766.0067,-198.1925C1766.0067,-235.4592 1766.0067,-317 1766.0067,-317 1766.0067,-317 2032.1009,-317 2032.1009,-317"/>
<polygon fill="#000000" stroke="#000000" points="2032.101,-320.5001 2042.1009,-317 2032.1009,-313.5001 2032.101,-320.5001"/>
</g>
<!-- MaterialModule -->
<g id="node9" class="node">
<title>MaterialModule</title>
<polygon fill="#8dd3c7" stroke="#000000" points="2002.4706,-198 1999.4706,-202 1978.4706,-202 1975.4706,-198 1895.5294,-198 1895.5294,-162 2002.4706,-162 2002.4706,-198"/>
<text text-anchor="middle" x="1949" y="-175.8" font-family="Times,serif" font-size="14.00" fill="#000000">MaterialModule</text>
</g>
<!-- MaterialModule&#45;&gt;AppModule -->
<g id="edge8" class="edge">
<title>MaterialModule&#45;&gt;AppModule</title>
<path fill="none" stroke="#000000" d="M1906.3016,-198.1491C1906.3016,-232.3636 1906.3016,-303 1906.3016,-303 1906.3016,-303 2032.3376,-303 2032.3376,-303"/>
<polygon fill="#000000" stroke="#000000" points="2032.3376,-306.5001 2042.3376,-303 2032.3376,-299.5001 2032.3376,-306.5001"/>
</g>
<!-- ScientificModule -->
<g id="node10" class="node">
<title>ScientificModule</title>
<polygon fill="#8dd3c7" stroke="#000000" points="1896.6994,-266 1893.6994,-270 1872.6994,-270 1869.6994,-266 1783.3006,-266 1783.3006,-230 1896.6994,-230 1896.6994,-266"/>
<text text-anchor="middle" x="1840" y="-243.8" font-family="Times,serif" font-size="14.00" fill="#000000">ScientificModule</text>
</g>
<!-- MaterialModule&#45;&gt;ScientificModule -->
<g id="edge21" class="edge">
<title>MaterialModule&#45;&gt;ScientificModule</title>
<path fill="none" stroke="#000000" d="M1895.2729,-180C1891.8915,-180 1889.8106,-180 1889.8106,-180 1889.8106,-180 1889.8106,-219.7772 1889.8106,-219.7772"/>
<polygon fill="#000000" stroke="#000000" points="1886.3107,-219.7772 1889.8106,-229.7772 1893.3107,-219.7773 1886.3107,-219.7772"/>
</g>
<!-- MaterialModule&#45;&gt;ToolModule -->
<g id="edge33" class="edge">
<title>MaterialModule&#45;&gt;ToolModule</title>
<path fill="none" stroke="#000000" d="M1959,-198.2228C1959,-198.2228 1959,-219.7269 1959,-219.7269"/>
<polygon fill="#000000" stroke="#000000" points="1955.5001,-219.7269 1959,-229.7269 1962.5001,-219.727 1955.5001,-219.7269"/>
</g>
<!-- ScientificModule&#45;&gt;AppModule -->
<g id="edge9" class="edge">
<title>ScientificModule&#45;&gt;AppModule</title>
<path fill="none" stroke="#000000" d="M1840,-266.2667C1840,-284.5552 1840,-310 1840,-310 1840,-310 2032.3321,-310 2032.3321,-310"/>
<polygon fill="#000000" stroke="#000000" points="2032.3322,-313.5001 2042.3321,-310 2032.3321,-306.5001 2032.3322,-313.5001"/>
</g>
<!-- ScientificComponent  -->
<g id="node24" class="node">
<title>ScientificComponent </title>
<polygon fill="#80b1d3" stroke="#000000" points="340.4826,-198 201.5174,-198 201.5174,-162 340.4826,-162 340.4826,-198"/>
<text text-anchor="middle" x="271" y="-175.8" font-family="Times,serif" font-size="14.00" fill="#000000">ScientificComponent </text>
</g>
<!-- ScientificModule&#45;&gt;ScientificComponent  -->
<g id="edge23" class="edge">
<title>ScientificModule&#45;&gt;ScientificComponent </title>
<path fill="none" stroke="#000000" stroke-dasharray="1,5" d="M1806.8971,-229.9421C1806.8971,-225.5055 1806.8971,-222 1806.8971,-222 1806.8971,-222 271,-222 271,-222 271,-222 271,-208.0555 271,-208.0555"/>
<polygon fill="#000000" stroke="#000000" points="274.5001,-208.0555 271,-198.0555 267.5001,-208.0556 274.5001,-208.0555"/>
</g>
<!-- ToolModule&#45;&gt;AppModule -->
<g id="edge10" class="edge">
<title>ToolModule&#45;&gt;AppModule</title>
<path fill="none" stroke="#000000" d="M2002.2556,-264C2033.4387,-264 2070.0573,-264 2070.0573,-264 2070.0573,-264 2070.0573,-284.7542 2070.0573,-284.7542"/>
<polygon fill="#000000" stroke="#000000" points="2066.5574,-284.7542 2070.0573,-294.7542 2073.5574,-284.7542 2066.5574,-284.7542"/>
</g>
<!-- ToolComponent  -->
<g id="node32" class="node">
<title>ToolComponent </title>
<polygon fill="#80b1d3" stroke="#000000" points="3169.7759,-198 3058.2241,-198 3058.2241,-162 3169.7759,-162 3169.7759,-198"/>
<text text-anchor="middle" x="3114" y="-175.8" font-family="Times,serif" font-size="14.00" fill="#000000">ToolComponent </text>
</g>
<!-- ToolModule&#45;&gt;ToolComponent  -->
<g id="edge35" class="edge">
<title>ToolModule&#45;&gt;ToolComponent </title>
<path fill="none" stroke="#000000" stroke-dasharray="1,5" d="M2002.1694,-244C2211.849,-244 3114,-244 3114,-244 3114,-244 3114,-208.1686 3114,-208.1686"/>
<polygon fill="#000000" stroke="#000000" points="3117.5001,-208.1686 3114,-198.1686 3110.5001,-208.1687 3117.5001,-208.1686"/>
</g>
<!-- StatisticsService -->
<g id="node13" class="node">
<title>StatisticsService</title>
<ellipse fill="#fdb462" stroke="#000000" cx="1650" cy="-248" rx="74.7265" ry="18"/>
<text text-anchor="middle" x="1650" y="-243.8" font-family="Times,serif" font-size="14.00" fill="#000000">StatisticsService</text>
</g>
<!-- StatisticsService&#45;&gt;AppModule -->
<g id="edge12" class="edge">
<title>StatisticsService&#45;&gt;AppModule</title>
<path fill="none" stroke="#000000" d="M1650,-266.0109C1650,-288.4852 1650,-324 1650,-324 1650,-324 2031.9919,-324 2031.9919,-324"/>
<polygon fill="#000000" stroke="#000000" points="2031.9919,-327.5001 2041.9919,-324 2031.9919,-320.5001 2031.9919,-327.5001"/>
</g>
<!-- AppAuthGuard -->
<g id="node14" class="node">
<title>AppAuthGuard</title>
<ellipse fill="#fdb462" stroke="#000000" cx="1813" cy="-104" rx="71.2133" ry="18"/>
<text text-anchor="middle" x="1813" y="-99.8" font-family="Times,serif" font-size="14.00" fill="#000000">AppAuthGuard</text>
</g>
<!-- AppAuthGuard&#45;&gt;AppRoutingModule -->
<g id="edge13" class="edge">
<title>AppAuthGuard&#45;&gt;AppRoutingModule</title>
<path fill="none" stroke="#000000" d="M1813,-122.0109C1813,-122.0109 1813,-151.855 1813,-151.855"/>
<polygon fill="#000000" stroke="#000000" points="1809.5001,-151.8549 1813,-161.855 1816.5001,-151.855 1809.5001,-151.8549"/>
</g>
<!-- NgFancyLibComponent -->
<g id="node15" class="node">
<title>NgFancyLibComponent</title>
<polygon fill="#ffffb3" stroke="#000000" points="4192.094,-122 4039.906,-122 4039.906,-86 4192.094,-86 4192.094,-122"/>
<text text-anchor="middle" x="4116" y="-99.8" font-family="Times,serif" font-size="14.00" fill="#000000">NgFancyLibComponent</text>
</g>
<!-- NgFancyLibModule -->
<g id="node16" class="node">
<title>NgFancyLibModule</title>
<polygon fill="#8dd3c7" stroke="#000000" points="4181.3118,-198 4178.3118,-202 4157.3118,-202 4154.3118,-198 4050.6882,-198 4050.6882,-162 4181.3118,-162 4181.3118,-198"/>
<text text-anchor="middle" x="4116" y="-175.8" font-family="Times,serif" font-size="14.00" fill="#000000">NgFancyLibModule</text>
</g>
<!-- NgFancyLibComponent&#45;&gt;NgFancyLibModule -->
<g id="edge14" class="edge">
<title>NgFancyLibComponent&#45;&gt;NgFancyLibModule</title>
<path fill="none" stroke="#000000" d="M4116,-122.0109C4116,-122.0109 4116,-151.855 4116,-151.855"/>
<polygon fill="#000000" stroke="#000000" points="4112.5001,-151.8549 4116,-161.855 4119.5001,-151.855 4112.5001,-151.8549"/>
</g>
<!-- NgFancyLibComponent  -->
<g id="node17" class="node">
<title>NgFancyLibComponent </title>
<polygon fill="#fb8072" stroke="#000000" points="4193.5945,-266 4038.4055,-266 4038.4055,-230 4193.5945,-230 4193.5945,-266"/>
<text text-anchor="middle" x="4116" y="-243.8" font-family="Times,serif" font-size="14.00" fill="#000000">NgFancyLibComponent </text>
</g>
<!-- NgFancyLibModule&#45;&gt;NgFancyLibComponent  -->
<g id="edge15" class="edge">
<title>NgFancyLibModule&#45;&gt;NgFancyLibComponent </title>
<path fill="none" stroke="#000000" stroke-dasharray="5,2" d="M4116,-198.2228C4116,-198.2228 4116,-219.7269 4116,-219.7269"/>
<polygon fill="#000000" stroke="#000000" points="4112.5001,-219.7269 4116,-229.7269 4119.5001,-219.727 4112.5001,-219.7269"/>
</g>
<!-- BenchmarkingChallengeListComponent -->
<g id="node18" class="node">
<title>BenchmarkingChallengeListComponent</title>
<polygon fill="#ffffb3" stroke="#000000" points="1535.2948,-198 1292.7052,-198 1292.7052,-162 1535.2948,-162 1535.2948,-198"/>
<text text-anchor="middle" x="1414" y="-175.8" font-family="Times,serif" font-size="14.00" fill="#000000">BenchmarkingChallengeListComponent</text>
</g>
<!-- BenchmarkingChallengeListComponent&#45;&gt;ScientificModule -->
<g id="edge16" class="edge">
<title>BenchmarkingChallengeListComponent&#45;&gt;ScientificModule</title>
<path fill="none" stroke="#000000" d="M1535.1986,-180C1625.5483,-180 1733.3783,-180 1733.3783,-180 1733.3783,-180 1733.3783,-248 1733.3783,-248 1733.3783,-248 1773.2552,-248 1773.2552,-248"/>
<polygon fill="#000000" stroke="#000000" points="1773.2552,-251.5001 1783.2552,-248 1773.2552,-244.5001 1773.2552,-251.5001"/>
</g>
<!-- BenchmarkingDetailComponent -->
<g id="node19" class="node">
<title>BenchmarkingDetailComponent</title>
<polygon fill="#ffffb3" stroke="#000000" points="1274.9622,-198 1077.0378,-198 1077.0378,-162 1274.9622,-162 1274.9622,-198"/>
<text text-anchor="middle" x="1176" y="-175.8" font-family="Times,serif" font-size="14.00" fill="#000000">BenchmarkingDetailComponent</text>
</g>
<!-- BenchmarkingDetailComponent&#45;&gt;ScientificModule -->
<g id="edge17" class="edge">
<title>BenchmarkingDetailComponent&#45;&gt;ScientificModule</title>
<path fill="none" stroke="#000000" d="M1176,-198.1679C1176,-200.4478 1176,-202 1176,-202 1176,-202 1865.6388,-202 1865.6388,-202 1865.6388,-202 1865.6388,-219.8196 1865.6388,-219.8196"/>
<polygon fill="#000000" stroke="#000000" points="1862.1389,-219.8195 1865.6388,-229.8196 1869.1389,-219.8196 1862.1389,-219.8195"/>
</g>
<!-- BenchmarkingListComponent -->
<g id="node20" class="node">
<title>BenchmarkingListComponent</title>
<polygon fill="#ffffb3" stroke="#000000" points="1058.5336,-198 873.4664,-198 873.4664,-162 1058.5336,-162 1058.5336,-198"/>
<text text-anchor="middle" x="966" y="-175.8" font-family="Times,serif" font-size="14.00" fill="#000000">BenchmarkingListComponent</text>
</g>
<!-- BenchmarkingListComponent&#45;&gt;ScientificModule -->
<g id="edge18" class="edge">
<title>BenchmarkingListComponent&#45;&gt;ScientificModule</title>
<path fill="none" stroke="#000000" d="M966,-198.0579C966,-202.4945 966,-206 966,-206 966,-206 1853.8904,-206 1853.8904,-206 1853.8904,-206 1853.8904,-219.9445 1853.8904,-219.9445"/>
<polygon fill="#000000" stroke="#000000" points="1850.3905,-219.9444 1853.8904,-229.9445 1857.3905,-219.9445 1850.3905,-219.9444"/>
</g>
<!-- ScientificComponent -->
<g id="node21" class="node">
<title>ScientificComponent</title>
<polygon fill="#ffffb3" stroke="#000000" points="855.4818,-198 720.5182,-198 720.5182,-162 855.4818,-162 855.4818,-198"/>
<text text-anchor="middle" x="788" y="-175.8" font-family="Times,serif" font-size="14.00" fill="#000000">ScientificComponent</text>
</g>
<!-- ScientificComponent&#45;&gt;ScientificModule -->
<g id="edge19" class="edge">
<title>ScientificComponent&#45;&gt;ScientificModule</title>
<path fill="none" stroke="#000000" d="M788,-198.1432C788,-204.4611 788,-210 788,-210 788,-210 1842.1421,-210 1842.1421,-210 1842.1421,-210 1842.1421,-219.8903 1842.1421,-219.8903"/>
<polygon fill="#000000" stroke="#000000" points="1838.6422,-219.8903 1842.1421,-229.8903 1845.6422,-219.8904 1838.6422,-219.8903"/>
</g>
<!-- ScientificListComponent -->
<g id="node22" class="node">
<title>ScientificListComponent</title>
<polygon fill="#ffffb3" stroke="#000000" points="702.2604,-198 545.7396,-198 545.7396,-162 702.2604,-162 702.2604,-198"/>
<text text-anchor="middle" x="624" y="-175.8" font-family="Times,serif" font-size="14.00" fill="#000000">ScientificListComponent</text>
</g>
<!-- ScientificListComponent&#45;&gt;ScientificModule -->
<g id="edge20" class="edge">
<title>ScientificListComponent&#45;&gt;ScientificModule</title>
<path fill="none" stroke="#000000" d="M624,-198.1944C624,-206.2782 624,-214 624,-214 624,-214 1830.3938,-214 1830.3938,-214 1830.3938,-214 1830.3938,-219.8056 1830.3938,-219.8056"/>
<polygon fill="#000000" stroke="#000000" points="1826.8938,-219.8055 1830.3938,-229.8056 1833.8938,-219.8056 1826.8938,-219.8055"/>
</g>
<!-- ScientificRoutingModule -->
<g id="node23" class="node">
<title>ScientificRoutingModule</title>
<polygon fill="#8dd3c7" stroke="#000000" points="522.3173,-198 519.3173,-202 498.3173,-202 495.3173,-198 363.6827,-198 363.6827,-162 522.3173,-162 522.3173,-198"/>
<text text-anchor="middle" x="443" y="-175.8" font-family="Times,serif" font-size="14.00" fill="#000000">ScientificRoutingModule</text>
</g>
<!-- ScientificRoutingModule&#45;&gt;ScientificModule -->
<g id="edge22" class="edge">
<title>ScientificRoutingModule&#45;&gt;ScientificModule</title>
<path fill="none" stroke="#000000" d="M443,-198.1097C443,-207.897 443,-218 443,-218 443,-218 1818.6454,-218 1818.6454,-218 1818.6454,-218 1818.6454,-219.8568 1818.6454,-219.8568"/>
<polygon fill="#000000" stroke="#000000" points="1815.1455,-219.8568 1818.6454,-229.8568 1822.1455,-219.8568 1815.1455,-219.8568"/>
</g>
<!-- ScientificService -->
<g id="node25" class="node">
<title>ScientificService</title>
<ellipse fill="#fdb462" stroke="#000000" cx="101" cy="-180" rx="76.9965" ry="18"/>
<text text-anchor="middle" x="101" y="-175.8" font-family="Times,serif" font-size="14.00" fill="#000000">ScientificService</text>
</g>
<!-- ScientificService&#45;&gt;ScientificModule -->
<g id="edge24" class="edge">
<title>ScientificService&#45;&gt;ScientificModule</title>
<path fill="none" stroke="#000000" d="M101,-198.1804C101,-211.0382 101,-226 101,-226 101,-226 1795.1487,-226 1795.1487,-226 1795.1487,-226 1795.1487,-226.3832 1795.1487,-226.3832"/>
<polygon fill="#000000" stroke="#000000" points="1791.649,-219.832 1795.1487,-229.8321 1798.649,-219.8322 1791.649,-219.832"/>
</g>
<!-- ChartIdPipe -->
<g id="node26" class="node">
<title>ChartIdPipe</title>
<polygon fill="#ffffb3" stroke="#000000" points="3997.6515,-198 3914.3485,-198 3914.3485,-162 3997.6515,-162 3997.6515,-198"/>
<text text-anchor="middle" x="3956" y="-175.8" font-family="Times,serif" font-size="14.00" fill="#000000">ChartIdPipe</text>
</g>
<!-- ChartIdPipe&#45;&gt;ToolModule -->
<g id="edge26" class="edge">
<title>ChartIdPipe&#45;&gt;ToolModule</title>
<path fill="none" stroke="#000000" d="M3956,-198.3802C3956,-222.2785 3956,-261 3956,-261 3956,-261 2012.0995,-261 2012.0995,-261"/>
<polygon fill="#000000" stroke="#000000" points="2012.0996,-257.5001 2002.0995,-261 2012.0995,-264.5001 2012.0996,-257.5001"/>
</g>
<!-- KeyValuePipe -->
<g id="node27" class="node">
<title>KeyValuePipe</title>
<polygon fill="#ffffb3" stroke="#000000" points="3895.6361,-198 3798.3639,-198 3798.3639,-162 3895.6361,-162 3895.6361,-198"/>
<text text-anchor="middle" x="3847" y="-175.8" font-family="Times,serif" font-size="14.00" fill="#000000">KeyValuePipe</text>
</g>
<!-- KeyValuePipe&#45;&gt;ToolModule -->
<g id="edge27" class="edge">
<title>KeyValuePipe&#45;&gt;ToolModule</title>
<path fill="none" stroke="#000000" d="M3847,-198.0908C3847,-221.1328 3847,-258 3847,-258 3847,-258 2012.4343,-258 2012.4343,-258"/>
<polygon fill="#000000" stroke="#000000" points="2012.4343,-254.5001 2002.4343,-258 2012.4342,-261.5001 2012.4343,-254.5001"/>
</g>
<!-- SourceBadgeClassPipe -->
<g id="node28" class="node">
<title>SourceBadgeClassPipe</title>
<polygon fill="#ffffb3" stroke="#000000" points="3779.8571,-198 3634.1429,-198 3634.1429,-162 3779.8571,-162 3779.8571,-198"/>
<text text-anchor="middle" x="3707" y="-175.8" font-family="Times,serif" font-size="14.00" fill="#000000">SourceBadgeClassPipe</text>
</g>
<!-- SourceBadgeClassPipe&#45;&gt;ToolModule -->
<g id="edge30" class="edge">
<title>SourceBadgeClassPipe&#45;&gt;ToolModule</title>
<path fill="none" stroke="#000000" d="M3707,-198.1554C3707,-220.3519 3707,-255 3707,-255 3707,-255 2012.2092,-255 2012.2092,-255"/>
<polygon fill="#000000" stroke="#000000" points="2012.2093,-251.5001 2002.2092,-255 2012.2092,-258.5001 2012.2093,-251.5001"/>
</g>
<!-- ToolComponent -->
<g id="node29" class="node">
<title>ToolComponent</title>
<polygon fill="#ffffb3" stroke="#000000" points="3615.7758,-198 3508.2242,-198 3508.2242,-162 3615.7758,-162 3615.7758,-198"/>
<text text-anchor="middle" x="3562" y="-175.8" font-family="Times,serif" font-size="14.00" fill="#000000">ToolComponent</text>
</g>
<!-- ToolComponent&#45;&gt;ToolModule -->
<g id="edge31" class="edge">
<title>ToolComponent&#45;&gt;ToolModule</title>
<path fill="none" stroke="#000000" d="M3562,-198.0449C3562,-219.6623 3562,-253 3562,-253 3562,-253 2012.2911,-253 2012.2911,-253"/>
<polygon fill="#000000" stroke="#000000" points="2012.2912,-249.5001 2002.2911,-253 2012.2911,-256.5001 2012.2912,-249.5001"/>
</g>
<!-- ToolTableComponent -->
<g id="node30" class="node">
<title>ToolTableComponent</title>
<polygon fill="#ffffb3" stroke="#000000" points="3489.6484,-198 3350.3516,-198 3350.3516,-162 3489.6484,-162 3489.6484,-198"/>
<text text-anchor="middle" x="3420" y="-175.8" font-family="Times,serif" font-size="14.00" fill="#000000">ToolTableComponent</text>
</g>
<!-- ToolTableComponent&#45;&gt;ToolModule -->
<g id="edge32" class="edge">
<title>ToolTableComponent&#45;&gt;ToolModule</title>
<path fill="none" stroke="#000000" d="M3420,-198.0267C3420,-218.7672 3420,-250 3420,-250 3420,-250 2012.3284,-250 2012.3284,-250"/>
<polygon fill="#000000" stroke="#000000" points="2012.3285,-246.5001 2002.3284,-250 2012.3284,-253.5001 2012.3285,-246.5001"/>
</g>
<!-- ToolRoutingModule -->
<g id="node31" class="node">
<title>ToolRoutingModule</title>
<polygon fill="#8dd3c7" stroke="#000000" points="3325.6108,-198 3322.6108,-202 3301.6108,-202 3298.6108,-198 3194.3892,-198 3194.3892,-162 3325.6108,-162 3325.6108,-198"/>
<text text-anchor="middle" x="3260" y="-175.8" font-family="Times,serif" font-size="14.00" fill="#000000">ToolRoutingModule</text>
</g>
<!-- ToolRoutingModule&#45;&gt;ToolModule -->
<g id="edge34" class="edge">
<title>ToolRoutingModule&#45;&gt;ToolModule</title>
<path fill="none" stroke="#000000" d="M3260,-198.308C3260,-218.1455 3260,-247 3260,-247 3260,-247 2012.2866,-247 2012.2866,-247"/>
<polygon fill="#000000" stroke="#000000" points="2012.2866,-243.5001 2002.2866,-247 2012.2866,-250.5001 2012.2866,-243.5001"/>
</g>
<!-- ToolService -->
<g id="node33" class="node">
<title>ToolService</title>
<ellipse fill="#fdb462" stroke="#000000" cx="2976" cy="-180" rx="58.4648" ry="18"/>
<text text-anchor="middle" x="2976" y="-175.8" font-family="Times,serif" font-size="14.00" fill="#000000">ToolService</text>
</g>
<!-- ToolService&#45;&gt;ToolModule -->
<g id="edge36" class="edge">
<title>ToolService&#45;&gt;ToolModule</title>
<path fill="none" stroke="#000000" d="M2976,-198.2667C2976,-216.5552 2976,-242 2976,-242 2976,-242 2012.0496,-242 2012.0496,-242"/>
<polygon fill="#000000" stroke="#000000" points="2012.0497,-238.5001 2002.0496,-242 2012.0496,-245.5001 2012.0497,-238.5001"/>
</g>
</g>
</svg>
